<svg version="1.1" xmlns="http://www.w3.org/2000/svg" viewBox="0 0 1420.7258597883583 1379.6384274062289" width="4262.177579365075" height="4138.915282218686">
  <!-- svg-source:excalidraw -->
  
  <defs>
    <style>
      @font-face {
        font-family: "Virgil";
        src: url("https://excalidraw.com/Virgil.woff2");
      }
      @font-face {
        font-family: "Cascadia";
        src: url("https://excalidraw.com/Cascadia.woff2");
      }
    </style>
  </defs>
  <rect x="0" y="0" width="1420.7258597883583" height="1379.6384274062289" fill="#ffffff"></rect><g stroke-opacity="0.7" fill-opacity="0.7" stroke-linecap="round" transform="translate(753.3440860215053 684.7835458754522) rotate(0 22.666666666666686 45.33333333333337)"><path d="M0 0 L45.33 0 L45.33 90.67 L0 90.67" stroke="none" stroke-width="0" fill="#12b886"></path><path d="M0 0 C16.98 0, 33.96 0, 45.33 0 M0 0 C9.24 0, 18.48 0, 45.33 0 M45.33 0 C45.33 25.69, 45.33 51.38, 45.33 90.67 M45.33 0 C45.33 18.66, 45.33 37.33, 45.33 90.67 M45.33 90.67 C33.88 90.67, 22.42 90.67, 0 90.67 M45.33 90.67 C35.13 90.67, 24.93 90.67, 0 90.67 M0 90.67 C0 56.47, 0 22.28, 0 0 M0 90.67 C0 71.86, 0 53.06, 0 0" stroke="#000000" stroke-width="1" fill="none"></path></g><g stroke-opacity="0.4" fill-opacity="0.4" stroke-linecap="round" transform="translate(191.22610780423292 10) rotate(0 26.20127822045154 26.20127822045154)"><path d="M0 0 L52.4 0 L52.4 52.4 L0 52.4" stroke="none" stroke-width="0" fill="#ced4da"></path><path d="M0 0 C16.87 0, 33.75 0, 52.4 0 M0 0 C14.5 0, 29 0, 52.4 0 M52.4 0 C52.4 12.71, 52.4 25.41, 52.4 52.4 M52.4 0 C52.4 10.51, 52.4 21.02, 52.4 52.4 M52.4 52.4 C41.42 52.4, 30.44 52.4, 0 52.4 M52.4 52.4 C37.66 52.4, 22.92 52.4, 0 52.4 M0 52.4 C0 37.08, 0 21.76, 0 0 M0 52.4 C0 37.03, 0 21.65, 0 0" stroke="#000000" stroke-width="1" fill="none"></path></g><g stroke-opacity="0.7" fill-opacity="0.7" transform="translate(263.0683222796637 20.142430278884262) rotate(0 79.449037184595 16.05884794156708)"><text x="0" y="26.11769588313416" font-family="Cascadia, Segoe UI Emoji" font-size="27.046480743691927px" fill="#000000" text-anchor="start" style="white-space: pre;" direction="ltr">r7525 Host</text></g><g stroke-opacity="0.4" fill-opacity="0.4" stroke-linecap="round" transform="translate(191.22610780423292 87.3360308764938) rotate(0 26.20127822045154 12.678037848605591)"><path d="M0 0 L52.4 0 L52.4 25.36 L0 25.36" stroke="none" stroke-width="0" fill="#12b886"></path><path d="M0 0 C13.48 0, 26.96 0, 52.4 0 M0 0 C18.76 0, 37.52 0, 52.4 0 M52.4 0 C52.4 6.87, 52.4 13.74, 52.4 25.36 M52.4 0 C52.4 6.01, 52.4 12.03, 52.4 25.36 M52.4 25.36 C36.89 25.36, 21.39 25.36, 0 25.36 M52.4 25.36 C31.78 25.36, 11.16 25.36, 0 25.36 M0 25.36 C0 15.6, 0 5.85, 0 0 M0 25.36 C0 15.65, 0 5.95, 0 0" stroke="#000000" stroke-width="1" fill="none"></path></g><g stroke-opacity="0.7" fill-opacity="0.7" transform="translate(263.0683222796637 83.95522078353247) rotate(0 87.05585989375828 16.05884794156708)"><text x="0" y="26.11769588313416" font-family="Cascadia, Segoe UI Emoji" font-size="27.046480743691912px" fill="#000000" text-anchor="start" style="white-space: pre;" direction="ltr">BlueField-2</text></g><g stroke-opacity="0.4" fill-opacity="0.4" stroke-linecap="round" transform="translate(186.91666666666652 174.25000000000003) rotate(0 140.72222222222234 119.00000000000007)"><path d="M0 0 L281.44 0 L281.44 238 L0 238" stroke="none" stroke-width="0" fill="#ced4da"></path><path d="M0 0 C87.14 0, 174.28 0, 281.44 0 M0 0 C91.44 0, 182.88 0, 281.44 0 M281.44 0 C281.44 56.18, 281.44 112.37, 281.44 238 M281.44 0 C281.44 86.9, 281.44 173.79, 281.44 238 M281.44 238 C222.95 238, 164.45 238, 0 238 M281.44 238 C173.17 238, 64.89 238, 0 238 M0 238 C0 150.23, 0 62.46, 0 0 M0 238 C0 144.06, 0 50.11, 0 0" stroke="#000000" stroke-width="1" fill="none"></path></g><g stroke-opacity="0.7" fill-opacity="0.7" transform="translate(230.36111111111074 203.52777777777786) rotate(0 97.27777777777783 53.833333333333364)"><text x="97.27777777777784" y="28.888888888888907" font-family="Cascadia, Segoe UI Emoji" font-size="30.222222222222236px" fill="#000000" text-anchor="middle" style="white-space: pre;" direction="ltr">rados-bench</text><text x="97.27777777777784" y="64.77777777777781" font-family="Cascadia, Segoe UI Emoji" font-size="30.222222222222236px" fill="#000000" text-anchor="middle" style="white-space: pre;" direction="ltr">1 MON</text><text x="97.27777777777784" y="100.66666666666671" font-family="Cascadia, Segoe UI Emoji" font-size="30.222222222222236px" fill="#000000" text-anchor="middle" style="white-space: pre;" direction="ltr">1 MGR</text></g><g stroke-opacity="0.7" fill-opacity="0.7" stroke-linecap="round" transform="translate(809.3055555555563 214.86111111111111) rotate(0 78.38888888888897 78.38888888888894)"><path d="M0 0 L156.78 0 L156.78 156.78 L0 156.78" stroke="none" stroke-width="0" fill="#ced4da"></path><path d="M0 0 C32.89 0, 65.78 0, 156.78 0 M0 0 C47.9 0, 95.81 0, 156.78 0 M156.78 0 C156.78 38.83, 156.78 77.66, 156.78 156.78 M156.78 0 C156.78 52.79, 156.78 105.57, 156.78 156.78 M156.78 156.78 C113.9 156.78, 71.01 156.78, 0 156.78 M156.78 156.78 C100.6 156.78, 44.41 156.78, 0 156.78 M0 156.78 C0 101.62, 0 46.47, 0 0 M0 156.78 C0 101.19, 0 45.6, 0 0" stroke="#000000" stroke-width="1" fill="none"></path></g><g stroke-opacity="0.4" fill-opacity="0.4" stroke-linecap="round" transform="translate(220.91666666666663 332.91666666666646) rotate(0 106.72222222222229 28.333333333333343)"><path d="M0 0 C0 0, 0 0, 0 0 M0 0 C0 0, 0 0, 0 0 M-0.26 6.4 C0.93 5.02, 2.13 3.65, 4.99 0.36 M-0.26 6.4 C1.49 4.38, 3.25 2.36, 4.99 0.36 M0.13 12.04 C3.52 8.15, 6.91 4.25, 10.63 -0.03 M0.13 12.04 C3.65 8, 7.16 3.96, 10.63 -0.03 M-0.13 18.44 C3.1 14.73, 6.32 11.02, 15.62 0.33 M-0.13 18.44 C5.07 12.46, 10.27 6.48, 15.62 0.33 M0.27 24.08 C7.25 16.05, 14.22 8.02, 21.26 -0.07 M0.27 24.08 C5.78 17.74, 11.3 11.39, 21.26 -0.07 M0 30.48 C7.45 21.91, 14.9 13.35, 26.25 0.29 M0 30.48 C7.58 21.77, 15.15 13.06, 26.25 0.29 M-0.26 36.88 C10.64 24.35, 21.53 11.82, 31.89 -0.1 M-0.26 36.88 C9.25 25.94, 18.76 15, 31.89 -0.1 M0.14 42.52 C9.72 31.49, 19.31 20.47, 36.88 0.26 M0.14 42.52 C8.4 33.02, 16.65 23.52, 36.88 0.26 M-0.12 48.92 C11.7 35.32, 23.52 21.72, 42.52 -0.14 M-0.12 48.92 C16.31 30.02, 32.74 11.12, 42.52 -0.14 M0.27 54.56 C12.59 40.39, 24.9 26.23, 47.51 0.22 M0.27 54.56 C18.05 34.11, 35.82 13.67, 47.51 0.22 M1.98 58.69 C17.9 40.38, 33.82 22.07, 53.15 -0.17 M1.98 58.69 C12.43 46.67, 22.88 34.65, 53.15 -0.17 M7.62 58.3 C24.59 38.78, 41.56 19.26, 58.14 0.19 M7.62 58.3 C17.83 46.55, 28.04 34.81, 58.14 0.19 M12.61 58.66 C24.48 45, 36.36 31.34, 63.78 -0.21 M12.61 58.66 C30.41 38.18, 48.21 17.71, 63.78 -0.21 M18.25 58.27 C31.74 42.75, 45.23 27.22, 68.77 0.15 M18.25 58.27 C37.61 35.99, 56.98 13.72, 68.77 0.15 M23.24 58.63 C36.54 43.32, 49.85 28.01, 74.41 -0.24 M23.24 58.63 C40.28 39.02, 57.32 19.42, 74.41 -0.24 M28.88 58.23 C47.22 37.13, 65.57 16.03, 79.4 0.12 M28.88 58.23 C40.13 45.29, 51.38 32.34, 79.4 0.12 M33.87 58.59 C46.29 44.3, 58.72 30.01, 85.04 -0.28 M33.87 58.59 C54.26 35.13, 74.65 11.67, 85.04 -0.28 M39.51 58.2 C52.69 43.03, 65.88 27.86, 90.03 0.08 M39.51 58.2 C51.89 43.95, 64.28 29.71, 90.03 0.08 M44.5 58.56 C57.62 43.46, 70.74 28.37, 95.67 -0.31 M44.5 58.56 C60.11 40.6, 75.72 22.64, 95.67 -0.31 M50.14 58.16 C66.6 39.23, 83.05 20.3, 100.66 0.05 M50.14 58.16 C70.2 35.08, 90.27 12, 100.66 0.05 M55.13 58.52 C65.62 46.45, 76.11 34.39, 106.3 -0.34 M55.13 58.52 C72.29 38.79, 89.44 19.05, 106.3 -0.34 M60.12 58.88 C72.94 44.13, 85.77 29.37, 111.29 0.02 M60.12 58.88 C72.77 44.33, 85.42 29.77, 111.29 0.02 M65.76 58.49 C76.92 45.65, 88.07 32.82, 116.27 0.38 M65.76 58.49 C80.59 41.43, 95.42 24.37, 116.27 0.38 M70.75 58.85 C83.9 43.72, 97.05 28.59, 121.92 -0.02 M70.75 58.85 C90.49 36.13, 110.24 13.41, 121.92 -0.02 M76.39 58.45 C89.75 43.09, 103.1 27.72, 126.91 0.34 M76.39 58.45 C91.86 40.66, 107.33 22.86, 126.91 0.34 M81.38 58.81 C96.43 41.49, 111.49 24.17, 132.55 -0.05 M81.38 58.81 C92.9 45.55, 104.43 32.29, 132.55 -0.05 M87.02 58.42 C103.4 39.58, 119.77 20.74, 137.54 0.31 M87.02 58.42 C98.21 45.55, 109.4 32.68, 137.54 0.31 M92.01 58.78 C104.29 44.65, 116.57 30.52, 143.18 -0.09 M92.01 58.78 C112.45 35.26, 132.9 11.74, 143.18 -0.09 M97.65 58.38 C108.6 45.79, 119.55 33.19, 148.17 0.27 M97.65 58.38 C108.23 46.22, 118.81 34.05, 148.17 0.27 M102.64 58.74 C117.99 41.08, 133.34 23.42, 153.81 -0.12 M102.64 58.74 C121.3 37.27, 139.97 15.8, 153.81 -0.12 M108.28 58.35 C127.83 35.86, 147.38 13.37, 158.8 0.24 M108.28 58.35 C126.56 37.32, 144.85 16.28, 158.8 0.24 M113.27 58.71 C123.91 46.46, 134.56 34.21, 164.44 -0.16 M113.27 58.71 C133.67 35.24, 154.07 11.77, 164.44 -0.16 M118.91 58.32 C134.46 40.43, 150 22.55, 169.43 0.2 M118.91 58.32 C133.7 41.3, 148.5 24.28, 169.43 0.2 M123.9 58.68 C135.47 45.36, 147.04 32.05, 175.07 -0.19 M123.9 58.68 C134.19 46.83, 144.48 34.99, 175.07 -0.19 M129.54 58.28 C143.69 42.01, 157.84 25.73, 180.06 0.17 M129.54 58.28 C146.61 38.64, 163.68 19.01, 180.06 0.17 M134.53 58.64 C152.15 38.37, 169.77 18.1, 185.7 -0.23 M134.53 58.64 C149.56 41.35, 164.59 24.05, 185.7 -0.23 M140.17 58.25 C151.94 44.7, 163.72 31.16, 190.69 0.13 M140.17 58.25 C158.08 37.64, 176 17.03, 190.69 0.13 M145.16 58.61 C159.53 42.07, 173.9 25.54, 196.33 -0.26 M145.16 58.61 C156.42 45.65, 167.68 32.69, 196.33 -0.26 M150.8 58.21 C167.17 39.38, 183.54 20.55, 201.32 0.1 M150.8 58.21 C167.09 39.47, 183.38 20.73, 201.32 0.1 M155.79 58.57 C170.22 41.97, 184.65 25.37, 206.96 -0.3 M155.79 58.57 C173.46 38.24, 191.14 17.9, 206.96 -0.3 M161.43 58.18 C178.52 38.51, 195.62 18.84, 211.95 0.06 M161.43 58.18 C178.74 38.26, 196.06 18.34, 211.95 0.06 M166.42 58.54 C182.28 40.29, 198.14 22.05, 215.62 1.93 M166.42 58.54 C179.07 43.99, 191.72 29.43, 215.62 1.93 M172.06 58.14 C184.6 43.71, 197.15 29.28, 215.36 8.33 M172.06 58.14 C182.39 46.25, 192.73 34.37, 215.36 8.33 M177.05 58.5 C188.83 44.95, 200.61 31.4, 215.75 13.98 M177.05 58.5 C191.14 42.29, 205.24 26.07, 215.75 13.98 M182.03 58.86 C189.38 50.41, 196.72 41.97, 215.49 20.37 M182.03 58.86 C193.92 45.19, 205.81 31.51, 215.49 20.37 M187.68 58.47 C194.98 50.07, 202.28 41.67, 215.89 26.02 M187.68 58.47 C196.07 48.81, 204.47 39.15, 215.89 26.02 M192.66 58.83 C201.79 48.33, 210.92 37.82, 215.63 32.41 M192.66 58.83 C200.92 49.33, 209.18 39.83, 215.63 32.41 M198.31 58.43 C204.18 51.67, 210.06 44.91, 215.36 38.81 M198.31 58.43 C203.6 52.34, 208.9 46.25, 215.36 38.81 M203.29 58.79 C207.31 54.18, 211.32 49.56, 215.76 44.45 M203.29 58.79 C206.29 55.35, 209.28 51.9, 215.76 44.45 M208.94 58.4 C210.57 56.52, 212.2 54.65, 215.5 50.85 M208.94 58.4 C210.76 56.31, 212.58 54.21, 215.5 50.85 M-0.13 56.55 C-0.13 56.55, -0.13 56.55, -0.13 56.55 M-0.13 56.55 C-0.13 56.55, -0.13 56.55, -0.13 56.55 M6.26 56.81 C3.94 54.79, 1.61 52.76, 0.23 51.56 M6.26 56.81 C4.48 55.26, 2.7 53.71, 0.23 51.56 M11.91 56.42 C7.78 52.83, 3.66 49.24, -0.17 45.92 M11.91 56.42 C7.13 52.26, 2.35 48.11, -0.17 45.92 M18.31 56.68 C12.88 51.96, 7.46 47.25, 0.19 40.93 M18.31 56.68 C13.2 52.24, 8.09 47.8, 0.19 40.93 M24.7 56.94 C15.4 48.86, 6.1 40.77, -0.2 35.29 M24.7 56.94 C18.29 51.36, 11.87 45.79, -0.2 35.29 M30.35 56.55 C22.47 49.7, 14.59 42.84, 0.16 30.3 M30.35 56.55 C18.92 46.62, 7.5 36.69, 0.16 30.3 M36.74 56.81 C28.45 49.6, 20.16 42.39, -0.24 24.66 M36.74 56.81 C23.07 44.92, 9.39 33.03, -0.24 24.66 M42.39 56.41 C30.98 46.49, 19.56 36.57, 0.12 19.67 M42.39 56.41 C27.74 43.68, 13.09 30.94, 0.12 19.67 M48.78 56.67 C32.47 42.49, 16.16 28.31, -0.27 14.03 M48.78 56.67 C32.56 42.57, 16.33 28.46, -0.27 14.03 M55.18 56.94 C41.2 44.78, 27.21 32.62, 0.09 9.04 M55.18 56.94 C34.75 39.17, 14.32 21.41, 0.09 9.04 M60.83 56.54 C38.5 37.13, 16.17 17.72, -0.31 3.4 M60.83 56.54 C44.9 42.7, 28.98 28.85, -0.31 3.4 M67.22 56.8 C49.4 41.31, 31.57 25.81, 0.81 -0.93 M67.22 56.8 C50.15 41.96, 33.07 27.11, 0.81 -0.93 M72.87 56.41 C58.62 44.03, 44.38 31.65, 7.21 -0.67 M72.87 56.41 C59.68 44.94, 46.48 33.47, 7.21 -0.67 M79.26 56.67 C59.52 39.5, 39.77 22.34, 12.85 -1.06 M79.26 56.67 C63.77 43.2, 48.28 29.74, 12.85 -1.06 M85.66 56.93 C71.68 44.78, 57.7 32.62, 19.25 -0.8 M85.66 56.93 C64.69 38.7, 43.71 20.47, 19.25 -0.8 M91.31 56.54 C74.52 41.94, 57.73 27.35, 24.89 -1.2 M91.31 56.54 C68.13 36.39, 44.95 16.24, 24.89 -1.2 M97.7 56.8 C77.97 39.65, 58.24 22.49, 31.29 -0.94 M97.7 56.8 C78.38 40, 59.06 23.21, 31.29 -0.94 M103.35 56.4 C78.75 35.02, 54.15 13.63, 37.69 -0.67 M103.35 56.4 C85.22 40.65, 67.1 24.9, 37.69 -0.67 M109.74 56.66 C92.76 41.9, 75.77 27.13, 43.33 -1.07 M109.74 56.66 C87.57 37.39, 65.41 18.12, 43.33 -1.07 M116.14 56.93 C100.78 43.57, 85.42 30.22, 49.73 -0.81 M116.14 56.93 C95.7 39.16, 75.26 21.39, 49.73 -0.81 M121.78 56.53 C102.27 39.57, 82.75 22.6, 55.37 -1.2 M121.78 56.53 C96.95 34.95, 72.12 13.36, 55.37 -1.2 M128.18 56.79 C107 38.38, 85.81 19.96, 61.77 -0.94 M128.18 56.79 C104.3 36.03, 80.41 15.27, 61.77 -0.94 M133.83 56.4 C117.63 42.32, 101.43 28.24, 68.17 -0.68 M133.83 56.4 C116.59 41.41, 99.35 26.43, 68.17 -0.68 M140.22 56.66 C122.81 41.52, 105.39 26.38, 73.81 -1.07 M140.22 56.66 C115.72 35.36, 91.22 14.06, 73.81 -1.07 M146.62 56.92 C121.53 35.11, 96.43 13.29, 80.21 -0.81 M146.62 56.92 C121.86 35.39, 97.09 13.87, 80.21 -0.81 M152.26 56.53 C138.08 44.19, 123.89 31.86, 85.85 -1.21 M152.26 56.53 C132.69 39.51, 113.11 22.49, 85.85 -1.21 M158.66 56.79 C133.49 34.91, 108.32 13.03, 92.25 -0.95 M158.66 56.79 C145.38 45.24, 132.09 33.69, 92.25 -0.95 M164.31 56.39 C147.64 41.91, 130.98 27.42, 98.65 -0.68 M164.31 56.39 C143.42 38.24, 122.53 20.08, 98.65 -0.68 M170.7 56.65 C146.14 35.3, 121.58 13.95, 104.29 -1.08 M170.7 56.65 C146.73 35.82, 122.76 14.98, 104.29 -1.08 M177.1 56.92 C151.09 34.3, 125.08 11.69, 110.69 -0.82 M177.1 56.92 C161.04 42.95, 144.97 28.99, 110.69 -0.82 M182.74 56.52 C162.93 39.3, 143.12 22.08, 116.33 -1.21 M182.74 56.52 C156.55 33.75, 130.36 10.98, 116.33 -1.21 M189.14 56.78 C164.96 35.76, 140.77 14.73, 122.73 -0.95 M189.14 56.78 C169.83 39.99, 150.51 23.2, 122.73 -0.95 M194.78 56.39 C172.43 36.96, 150.08 17.52, 129.12 -0.69 M194.78 56.39 C171.07 35.78, 147.37 15.17, 129.12 -0.69 M201.18 56.65 C185.48 43, 169.78 29.36, 134.77 -1.08 M201.18 56.65 C180.49 38.66, 159.8 20.68, 134.77 -1.08 M207.58 56.91 C187.63 39.57, 167.68 22.22, 141.17 -0.82 M207.58 56.91 C191.4 42.85, 175.22 28.78, 141.17 -0.82 M213.22 56.52 C199.84 44.88, 186.46 33.25, 146.81 -1.22 M213.22 56.52 C188.48 35.01, 163.73 13.49, 146.81 -1.22 M215.85 53.5 C202.66 42.04, 189.48 30.58, 153.21 -0.95 M215.85 53.5 C194.15 34.64, 172.45 15.77, 153.21 -0.95 M216.21 48.51 C194.65 29.77, 173.08 11.02, 159.6 -0.69 M216.21 48.51 C195.59 30.58, 174.96 12.66, 159.6 -0.69 M215.81 42.87 C199.08 28.32, 182.34 13.77, 165.25 -1.09 M215.81 42.87 C200.86 29.87, 185.9 16.87, 165.25 -1.09 M216.17 37.88 C206.19 29.21, 196.22 20.53, 171.65 -0.83 M216.17 37.88 C198.41 22.44, 180.64 6.99, 171.65 -0.83 M215.78 32.24 C202.29 20.51, 188.8 8.78, 177.29 -1.22 M215.78 32.24 C206.54 24.21, 197.31 16.18, 177.29 -1.22 M216.14 27.25 C206.12 18.55, 196.11 9.84, 183.69 -0.96 M216.14 27.25 C209.3 21.31, 202.46 15.36, 183.69 -0.96 M215.74 21.61 C205.85 13, 195.95 4.4, 190.08 -0.7 M215.74 21.61 C209.36 16.06, 202.97 10.5, 190.08 -0.7 M216.1 16.62 C209.17 10.6, 202.24 4.57, 195.73 -1.09 M216.1 16.62 C208.86 10.32, 201.61 4.02, 195.73 -1.09 M215.71 10.98 C210.53 6.47, 205.35 1.97, 202.12 -0.83 M215.71 10.98 C211.43 7.26, 207.16 3.55, 202.12 -0.83 M216.07 5.99 C213.14 3.45, 210.22 0.9, 207.77 -1.23 M216.07 5.99 C214.31 4.47, 212.56 2.94, 207.77 -1.23" stroke="#4c6ef5" stroke-width="0.5" fill="none"></path><path d="M0 0 C62.26 0, 124.52 0, 213.44 0 M213.44 0 C213.44 22.54, 213.44 45.08, 213.44 56.67 M213.44 56.67 C152.69 56.67, 91.94 56.67, 0 56.67 M0 56.67 C0 39.23, 0 21.8, 0 0" stroke="#5f3dc4" stroke-width="1.5" fill="none" stroke-dasharray="1.5 7"></path></g><g stroke-opacity="0.7" fill-opacity="0.7" transform="translate(230.36111111111074 343.3055555555557) rotate(0 97.27777777777783 17.944444444444443)"><text x="97.27777777777784" y="28.888888888888893" font-family="Cascadia, Segoe UI Emoji" font-size="30.222222222222236px" fill="#000000" text-anchor="middle" style="white-space: pre;" direction="ltr">ramdisk/hdd</text></g><g stroke-opacity="0.7" fill-opacity="0.7" transform="translate(843.3055555555568 277.19444444444423) rotate(0 44.388888888888914 17.94444444444445)"><text x="44.388888888888914" y="28.888888888888893" font-family="Cascadia, Segoe UI Emoji" font-size="30.222222222222232px" fill="#000000" text-anchor="middle" style="white-space: pre;" direction="ltr">1 OSD</text></g><g stroke-opacity="0.7" fill-opacity="0.7" stroke-linecap="round" transform="translate(751.3440860215057 263.256272401434) rotate(0 22.666666666666686 45.33333333333336)"><path d="M0 0 L45.33 0 L45.33 90.67 L0 90.67" stroke="none" stroke-width="0" fill="#12b886"></path><path d="M0 0 C12.88 0, 25.77 0, 45.33 0 M0 0 C10.22 0, 20.45 0, 45.33 0 M45.33 0 C45.33 24.58, 45.33 49.17, 45.33 90.67 M45.33 0 C45.33 27.11, 45.33 54.23, 45.33 90.67 M45.33 90.67 C32.28 90.67, 19.22 90.67, 0 90.67 M45.33 90.67 C31.52 90.67, 17.71 90.67, 0 90.67 M0 90.67 C0 70.75, 0 50.83, 0 0 M0 90.67 C0 62.51, 0 34.35, 0 0" stroke="#000000" stroke-width="1" fill="none"></path></g><g stroke-opacity="0.7" fill-opacity="0.7" stroke-linecap="round" transform="translate(801.6616695433047 335.79671657286036) rotate(270 1.7993384915720867 6.985667084926874)"><path d="M0 0 L3.6 0 L3.6 13.97 L0 13.97" stroke="none" stroke-width="0" fill="#fab005"></path><path d="M0 0 C0.95 0, 1.9 0, 3.6 0 M0 0 C1.16 0, 2.31 0, 3.6 0 M3.6 0 C3.6 4.07, 3.6 8.15, 3.6 13.97 M3.6 0 C3.6 4.56, 3.6 9.11, 3.6 13.97 M3.6 13.97 C2.67 13.97, 1.73 13.97, 0 13.97 M3.6 13.97 C2.29 13.97, 0.99 13.97, 0 13.97 M0 13.97 C0 9.17, 0 4.37, 0 0 M0 13.97 C0 9.73, 0 5.49, 0 0" stroke="#000000" stroke-width="1" fill="none"></path></g><g stroke-opacity="0.7" fill-opacity="0.7" stroke-linecap="round" transform="translate(801.6616695433052 339.3767153017657) rotate(270 1.7993384915720867 6.985667084926874)"><path d="M0 0 L3.6 0 L3.6 13.97 L0 13.97" stroke="none" stroke-width="0" fill="#fab005"></path><path d="M0 0 C0.87 0, 1.73 0, 3.6 0 M0 0 C0.81 0, 1.63 0, 3.6 0 M3.6 0 C3.6 5.54, 3.6 11.08, 3.6 13.97 M3.6 0 C3.6 5.2, 3.6 10.39, 3.6 13.97 M3.6 13.97 C2.34 13.97, 1.09 13.97, 0 13.97 M3.6 13.97 C2.6 13.97, 1.61 13.97, 0 13.97 M0 13.97 C0 9.46, 0 4.94, 0 0 M0 13.97 C0 11.04, 0 8.11, 0 0" stroke="#000000" stroke-width="1" fill="none"></path></g><g stroke-opacity="0.7" fill-opacity="0.7" stroke-linecap="round" transform="translate(801.6616695433052 328.5962495641982) rotate(270 1.7993384915720867 6.985667084926874)"><path d="M0 0 L3.6 0 L3.6 13.97 L0 13.97" stroke="none" stroke-width="0" fill="#fab005"></path><path d="M0 0 C1.44 0, 2.87 0, 3.6 0 M0 0 C0.95 0, 1.91 0, 3.6 0 M3.6 0 C3.6 4.63, 3.6 9.25, 3.6 13.97 M3.6 0 C3.6 5.11, 3.6 10.22, 3.6 13.97 M3.6 13.97 C2.75 13.97, 1.91 13.97, 0 13.97 M3.6 13.97 C2.25 13.97, 0.91 13.97, 0 13.97 M0 13.97 C0 10.44, 0 6.91, 0 0 M0 13.97 C0 8.53, 0 3.1, 0 0" stroke="#000000" stroke-width="1" fill="none"></path></g><g stroke-opacity="0.7" fill-opacity="0.7" stroke-linecap="round" transform="translate(801.6616695433047 332.176248293103) rotate(270 1.7993384915720867 6.985667084926874)"><path d="M0 0 L3.6 0 L3.6 13.97 L0 13.97" stroke="none" stroke-width="0" fill="#fab005"></path><path d="M0 0 C0.78 0, 1.55 0, 3.6 0 M0 0 C1.03 0, 2.06 0, 3.6 0 M3.6 0 C3.6 3.52, 3.6 7.04, 3.6 13.97 M3.6 0 C3.6 4.15, 3.6 8.29, 3.6 13.97 M3.6 13.97 C2.3 13.97, 1 13.97, 0 13.97 M3.6 13.97 C2.59 13.97, 1.59 13.97, 0 13.97 M0 13.97 C0 10.22, 0 6.47, 0 0 M0 13.97 C0 8.46, 0 2.95, 0 0" stroke="#000000" stroke-width="1" fill="none"></path></g><g stroke-opacity="0.7" fill-opacity="0.7" stroke-linecap="round" transform="translate(801.6616695433047 321.35219996231484) rotate(270 1.7993384915720867 6.985667084926874)"><path d="M0 0 L3.6 0 L3.6 13.97 L0 13.97" stroke="none" stroke-width="0" fill="#fab005"></path><path d="M0 0 C1.38 0, 2.75 0, 3.6 0 M0 0 C1.38 0, 2.76 0, 3.6 0 M3.6 0 C3.6 4.9, 3.6 9.81, 3.6 13.97 M3.6 0 C3.6 3.95, 3.6 7.9, 3.6 13.97 M3.6 13.97 C2.79 13.97, 1.99 13.97, 0 13.97 M3.6 13.97 C2.78 13.97, 1.97 13.97, 0 13.97 M0 13.97 C0 8.65, 0 3.34, 0 0 M0 13.97 C0 10.19, 0 6.42, 0 0" stroke="#000000" stroke-width="1" fill="none"></path></g><g stroke-opacity="0.7" fill-opacity="0.7" stroke-linecap="round" transform="translate(801.6616695433047 324.93219869122123) rotate(270 1.7993384915720867 6.985667084926874)"><path d="M0 0 L3.6 0 L3.6 13.97 L0 13.97" stroke="none" stroke-width="0" fill="#fab005"></path><path d="M0 0 C0.95 0, 1.91 0, 3.6 0 M0 0 C1.25 0, 2.5 0, 3.6 0 M3.6 0 C3.6 4.36, 3.6 8.73, 3.6 13.97 M3.6 0 C3.6 3.02, 3.6 6.03, 3.6 13.97 M3.6 13.97 C2.76 13.97, 1.93 13.97, 0 13.97 M3.6 13.97 C2.5 13.97, 1.4 13.97, 0 13.97 M0 13.97 C0 9.39, 0 4.82, 0 0 M0 13.97 C0 8.42, 0 2.88, 0 0" stroke="#000000" stroke-width="1" fill="none"></path></g><g stroke-opacity="0.7" fill-opacity="0.7" stroke-linecap="round" transform="translate(801.6616695433052 314.151732953652) rotate(270 1.7993384915720867 6.985667084926874)"><path d="M0 0 L3.6 0 L3.6 13.97 L0 13.97" stroke="none" stroke-width="0" fill="#fab005"></path><path d="M0 0 C1.29 0, 2.58 0, 3.6 0 M0 0 C1.09 0, 2.17 0, 3.6 0 M3.6 0 C3.6 5.14, 3.6 10.29, 3.6 13.97 M3.6 0 C3.6 2.87, 3.6 5.75, 3.6 13.97 M3.6 13.97 C2.3 13.97, 1 13.97, 0 13.97 M3.6 13.97 C2.5 13.97, 1.4 13.97, 0 13.97 M0 13.97 C0 10.69, 0 7.41, 0 0 M0 13.97 C0 9.28, 0 4.59, 0 0" stroke="#000000" stroke-width="1" fill="none"></path></g><g stroke-opacity="0.7" fill-opacity="0.7" stroke-linecap="round" transform="translate(801.6616695433052 317.7317316825593) rotate(270 1.7993384915720867 6.985667084926874)"><path d="M0 0 L3.6 0 L3.6 13.97 L0 13.97" stroke="none" stroke-width="0" fill="#fab005"></path><path d="M0 0 C1.24 0, 2.49 0, 3.6 0 M0 0 C1.26 0, 2.53 0, 3.6 0 M3.6 0 C3.6 4.96, 3.6 9.92, 3.6 13.97 M3.6 0 C3.6 3.11, 3.6 6.22, 3.6 13.97 M3.6 13.97 C2.84 13.97, 2.08 13.97, 0 13.97 M3.6 13.97 C2.32 13.97, 1.04 13.97, 0 13.97 M0 13.97 C0 10.22, 0 6.47, 0 0 M0 13.97 C0 10.2, 0 6.43, 0 0" stroke="#000000" stroke-width="1" fill="none"></path></g><g stroke-opacity="0.7" fill-opacity="0.7" stroke-linecap="round" transform="translate(801.6616695433052 307.0073007077079) rotate(270 1.7993384915720867 6.985667084926874)"><path d="M0 0 L3.6 0 L3.6 13.97 L0 13.97" stroke="none" stroke-width="0" fill="#fab005"></path><path d="M0 0 C1.25 0, 2.5 0, 3.6 0 M0 0 C0.8 0, 1.6 0, 3.6 0 M3.6 0 C3.6 5.18, 3.6 10.37, 3.6 13.97 M3.6 0 C3.6 4.78, 3.6 9.56, 3.6 13.97 M3.6 13.97 C2.67 13.97, 1.74 13.97, 0 13.97 M3.6 13.97 C2.26 13.97, 0.92 13.97, 0 13.97 M0 13.97 C0 9.86, 0 5.74, 0 0 M0 13.97 C0 10.45, 0 6.94, 0 0" stroke="#000000" stroke-width="1" fill="none"></path></g><g stroke-opacity="0.7" fill-opacity="0.7" stroke-linecap="round" transform="translate(801.6616695433052 310.5872994366102) rotate(270 1.7993384915720867 6.985667084926874)"><path d="M0 0 L3.6 0 L3.6 13.97 L0 13.97" stroke="none" stroke-width="0" fill="#fab005"></path><path d="M0 0 C1.39 0, 2.79 0, 3.6 0 M0 0 C1.12 0, 2.25 0, 3.6 0 M3.6 0 C3.6 3.22, 3.6 6.43, 3.6 13.97 M3.6 0 C3.6 5.43, 3.6 10.86, 3.6 13.97 M3.6 13.97 C2.46 13.97, 1.31 13.97, 0 13.97 M3.6 13.97 C2.51 13.97, 1.42 13.97, 0 13.97 M0 13.97 C0 9.34, 0 4.7, 0 0 M0 13.97 C0 10.56, 0 7.16, 0 0" stroke="#000000" stroke-width="1" fill="none"></path></g><g stroke-opacity="0.7" fill-opacity="0.7" stroke-linecap="round" transform="translate(801.6616695433047 299.8068336990465) rotate(270 1.7993384915720867 6.985667084926874)"><path d="M0 0 L3.6 0 L3.6 13.97 L0 13.97" stroke="none" stroke-width="0" fill="#fab005"></path><path d="M0 0 C0.86 0, 1.73 0, 3.6 0 M0 0 C1.17 0, 2.35 0, 3.6 0 M3.6 0 C3.6 4.48, 3.6 8.96, 3.6 13.97 M3.6 0 C3.6 5.28, 3.6 10.56, 3.6 13.97 M3.6 13.97 C2.18 13.97, 0.76 13.97, 0 13.97 M3.6 13.97 C2.28 13.97, 0.95 13.97, 0 13.97 M0 13.97 C0 11.02, 0 8.08, 0 0 M0 13.97 C0 8.89, 0 3.81, 0 0" stroke="#000000" stroke-width="1" fill="none"></path></g><g stroke-opacity="0.7" fill-opacity="0.7" stroke-linecap="round" transform="translate(801.6616695433047 303.3868324279514) rotate(270 1.7993384915720867 6.985667084926874)"><path d="M0 0 L3.6 0 L3.6 13.97 L0 13.97" stroke="none" stroke-width="0" fill="#fab005"></path><path d="M0 0 C1.05 0, 2.1 0, 3.6 0 M0 0 C1.17 0, 2.35 0, 3.6 0 M3.6 0 C3.6 3.62, 3.6 7.24, 3.6 13.97 M3.6 0 C3.6 5.07, 3.6 10.14, 3.6 13.97 M3.6 13.97 C2.36 13.97, 1.13 13.97, 0 13.97 M3.6 13.97 C2.51 13.97, 1.41 13.97, 0 13.97 M0 13.97 C0 10.77, 0 7.56, 0 0 M0 13.97 C0 9.39, 0 4.81, 0 0" stroke="#000000" stroke-width="1" fill="none"></path></g><g stroke-opacity="0.7" fill-opacity="0.7" stroke-linecap="round" transform="translate(801.6616695433047 296.1427828260695) rotate(270 1.7993384915720867 6.985667084926874)"><path d="M0 0 L3.6 0 L3.6 13.97 L0 13.97" stroke="none" stroke-width="0" fill="#fab005"></path><path d="M0 0 C1.43 0, 2.85 0, 3.6 0 M0 0 C1.34 0, 2.68 0, 3.6 0 M3.6 0 C3.6 4.88, 3.6 9.75, 3.6 13.97 M3.6 0 C3.6 3.86, 3.6 7.72, 3.6 13.97 M3.6 13.97 C2.44 13.97, 1.27 13.97, 0 13.97 M3.6 13.97 C2.84 13.97, 2.09 13.97, 0 13.97 M0 13.97 C0 11.07, 0 8.17, 0 0 M0 13.97 C0 9.86, 0 5.74, 0 0" stroke="#000000" stroke-width="1" fill="none"></path></g><g stroke-opacity="0.7" fill-opacity="0.7" transform="translate(744.5107526881727 297.6451612903227) rotate(270 29.5 12)"><text x="29.5" y="19" font-family="Cascadia, Segoe UI Emoji" font-size="20px" fill="#000000" text-anchor="middle" style="white-space: pre;" direction="ltr">1 OSD</text></g><g transform="translate(430.41666666666583 475.2634375787553) rotate(0 200.5 11.5)"><text x="200.5" y="18" font-family="Helvetica, Segoe UI Emoji" font-size="20px" fill="#000000" text-anchor="middle" style="white-space: pre;" direction="ltr">NVMe-over-RDMA (on ramdisk or hdd target)</text></g><g stroke-linecap="round"><g stroke-opacity="0.8" fill-opacity="0.8" transform="translate(326.6388888888889 391.7634375787551) rotate(0 223.13888888888852 18.656249999999943)"><path d="M0 0 C8.17 11, -17.71 55.67, 49 66 C115.71 76.33, 334.06 79.17, 400.28 62 C466.49 44.83, 438.61 -20.5, 446.28 -37 M0 0 C8.17 11, -17.71 55.67, 49 66 C115.71 76.33, 334.06 79.17, 400.28 62 C466.49 44.83, 438.61 -20.5, 446.28 -37" stroke="#000000" stroke-width="2" fill="none"></path></g><g stroke-opacity="0.8" fill-opacity="0.8" transform="translate(326.6388888888889 391.7634375787551) rotate(0 223.13888888888852 18.656249999999943)"><path d="M15.93 25.42 C12 19.14, 8.06 12.86, 0 0 M15.93 25.42 C9.77 15.59, 3.61 5.75, 0 0" stroke="#000000" stroke-width="2" fill="none"></path></g><g stroke-opacity="0.8" fill-opacity="0.8" transform="translate(326.6388888888889 391.7634375787551) rotate(0 223.13888888888852 18.656249999999943)"><path d="M-4.14 29.71 C-3.11 22.37, -2.09 15.03, 0 0 M-4.14 29.71 C-2.54 18.22, -0.94 6.73, 0 0" stroke="#000000" stroke-width="2" fill="none"></path></g><g stroke-opacity="0.8" fill-opacity="0.8" transform="translate(326.6388888888889 391.7634375787551) rotate(0 223.13888888888852 18.656249999999943)"><path d="M455.64 -8.5 C453.33 -15.54, 451.02 -22.58, 446.28 -37 M455.64 -8.5 C452.02 -19.52, 448.4 -30.55, 446.28 -37" stroke="#000000" stroke-width="2" fill="none"></path></g><g stroke-opacity="0.8" fill-opacity="0.8" transform="translate(326.6388888888889 391.7634375787551) rotate(0 223.13888888888852 18.656249999999943)"><path d="M435.13 -9.15 C437.89 -16.03, 440.64 -22.91, 446.28 -37 M435.13 -9.15 C439.44 -19.92, 443.75 -30.7, 446.28 -37" stroke="#000000" stroke-width="2" fill="none"></path></g></g><g stroke-linecap="round"><g stroke-opacity="0.8" fill-opacity="0.8" transform="translate(325.7777777777774 392.263437578755) rotate(0 279.1388888888886 26.369684210526287)"><path d="M0 0 C10.32 11.32, -21.27 57.95, 61.95 67.95 C145.16 77.95, 416.56 74.82, 499.28 60 C582 45.18, 548.44 -7.5, 558.28 -21 M0 0 C10.32 11.32, -21.27 57.95, 61.95 67.95 C145.16 77.95, 416.56 74.82, 499.28 60 C582 45.18, 548.44 -7.5, 558.28 -21" stroke="#000000" stroke-width="2" fill="none"></path></g><g stroke-opacity="0.8" fill-opacity="0.8" transform="translate(325.7777777777774 392.263437578755) rotate(0 279.1388888888886 26.369684210526287)"><path d="M17.28 24.53 C10.9 15.48, 4.53 6.43, 0 0 M17.28 24.53 C11.76 16.7, 6.25 8.87, 0 0" stroke="#000000" stroke-width="2" fill="none"></path></g><g stroke-opacity="0.8" fill-opacity="0.8" transform="translate(325.7777777777774 392.263437578755) rotate(0 279.1388888888886 26.369684210526287)"><path d="M-2.53 29.89 C-1.6 18.87, -0.66 7.84, 0 0 M-2.53 29.89 C-1.72 20.35, -0.91 10.81, 0 0" stroke="#000000" stroke-width="2" fill="none"></path></g><g stroke-opacity="0.8" fill-opacity="0.8" transform="translate(325.7777777777774 392.263437578755) rotate(0 279.1388888888886 26.369684210526287)"><path d="M566.54 7.84 C563.49 -2.8, 560.45 -13.43, 558.28 -21 M566.54 7.84 C563.91 -1.37, 561.27 -10.57, 558.28 -21" stroke="#000000" stroke-width="2" fill="none"></path></g><g stroke-opacity="0.8" fill-opacity="0.8" transform="translate(325.7777777777774 392.263437578755) rotate(0 279.1388888888886 26.369684210526287)"><path d="M546.07 6.41 C550.57 -3.7, 555.08 -13.81, 558.28 -21 M546.07 6.41 C549.97 -2.34, 553.87 -11.09, 558.28 -21" stroke="#000000" stroke-width="2" fill="none"></path></g></g><g transform="translate(10 251.25000000000003) rotate(0 34 42.00000000000003)"><text x="34.00000000000001" y="68.00000000000006" font-family="Helvetica, Segoe UI Emoji" font-size="72px" fill="#000000" text-anchor="middle" style="white-space: pre;" direction="ltr">A.</text></g><g stroke-linecap="round"><g stroke-opacity="0.7" fill-opacity="0.7" transform="translate(468.77083333333337 293.25) rotate(0 141.66666666666669 0)"><path d="M0 0 C47.22 0, 236.11 0, 283.33 0 M0 0 C47.22 0, 236.11 0, 283.33 0" stroke="#000000" stroke-width="2" fill="none"></path></g><g stroke-opacity="0.7" fill-opacity="0.7" transform="translate(468.77083333333337 293.25) rotate(0 141.66666666666669 0)"><path d="M28.19 -10.26 C21.14 -7.69, 14.09 -5.13, 0 0 M28.19 -10.26 C18.49 -6.73, 8.79 -3.2, 0 0" stroke="#000000" stroke-width="2" fill="none"></path></g><g stroke-opacity="0.7" fill-opacity="0.7" transform="translate(468.77083333333337 293.25) rotate(0 141.66666666666669 0)"><path d="M28.19 10.26 C21.14 7.69, 14.09 5.13, 0 0 M28.19 10.26 C18.49 6.73, 8.79 3.2, 0 0" stroke="#000000" stroke-width="2" fill="none"></path></g><g stroke-opacity="0.7" fill-opacity="0.7" transform="translate(468.77083333333337 293.25) rotate(0 141.66666666666669 0)"><path d="M255.14 10.26 C262.19 7.69, 269.24 5.13, 283.33 0 M255.14 10.26 C264.84 6.73, 274.54 3.2, 283.33 0" stroke="#000000" stroke-width="2" fill="none"></path></g><g stroke-opacity="0.7" fill-opacity="0.7" transform="translate(468.77083333333337 293.25) rotate(0 141.66666666666669 0)"><path d="M255.14 -10.26 C262.19 -7.69, 269.24 -5.13, 283.33 0 M255.14 -10.26 C264.84 -6.73, 274.54 -3.2, 283.33 0" stroke="#000000" stroke-width="2" fill="none"></path></g></g><g stroke-opacity="0.8" fill-opacity="0.8" transform="translate(564.4375000000001 260.3539325344947) rotate(0 46 13.46341463414634)"><text x="45.99999999999999" y="21.926829268292682" font-family="Cascadia, Segoe UI Emoji" font-size="22.4390243902439px" fill="#c92a2a" text-anchor="middle" style="white-space: pre;" direction="ltr">100Gbps</text></g><g stroke-opacity="0.4" fill-opacity="0.4" stroke-linecap="round" transform="translate(188.91666666666652 1030.4616800123647) rotate(0 140.72222222222234 119.00000000000006)"><path d="M0 0 L281.44 0 L281.44 238 L0 238" stroke="none" stroke-width="0" fill="#ced4da"></path><path d="M0 0 C66.96 0, 133.92 0, 281.44 0 M0 0 C112.17 0, 224.34 0, 281.44 0 M281.44 0 C281.44 83.4, 281.44 166.81, 281.44 238 M281.44 0 C281.44 70.61, 281.44 141.22, 281.44 238 M281.44 238 C188.72 238, 95.99 238, 0 238 M281.44 238 C175.03 238, 68.62 238, 0 238 M0 238 C0 161.01, 0 84.03, 0 0 M0 238 C0 179.87, 0 121.74, 0 0" stroke="#000000" stroke-width="1" fill="none"></path></g><g stroke-opacity="0.7" fill-opacity="0.7" transform="translate(232.1388888888888 1131.4616800123652) rotate(0 97.5 18)"><text x="97.5" y="29" font-family="Cascadia, Segoe UI Emoji" font-size="30.222222222222236px" fill="#000000" text-anchor="middle" style="white-space: pre;" direction="ltr">rados-bench</text></g><g stroke-opacity="0.7" fill-opacity="0.7" stroke-linecap="round" transform="translate(811.3055555555563 1071.072791123476) rotate(0 78.38888888888897 78.38888888888897)"><path d="M0 0 L156.78 0 L156.78 156.78 L0 156.78" stroke="none" stroke-width="0" fill="#ced4da"></path><path d="M0 0 C50.64 0, 101.27 0, 156.78 0 M0 0 C34.13 0, 68.26 0, 156.78 0 M156.78 0 C156.78 48.44, 156.78 96.87, 156.78 156.78 M156.78 0 C156.78 46.3, 156.78 92.61, 156.78 156.78 M156.78 156.78 C114.68 156.78, 72.58 156.78, 0 156.78 M156.78 156.78 C115.8 156.78, 74.83 156.78, 0 156.78 M0 156.78 C0 111.82, 0 66.86, 0 0 M0 156.78 C0 96.61, 0 36.44, 0 0" stroke="#000000" stroke-width="1" fill="none"></path></g><g stroke-opacity="0.7" fill-opacity="0.7" transform="translate(845.3055555555568 1127.2361009385852) rotate(0 44.388888888888914 17.944444444444457)"><text x="44.388888888888914" y="28.888888888888893" font-family="Cascadia, Segoe UI Emoji" font-size="30.222222222222232px" fill="#000000" text-anchor="middle" style="white-space: pre;" direction="ltr">1 OSD</text></g><g stroke-opacity="0.7" fill-opacity="0.7" stroke-linecap="round" transform="translate(753.3440860215057 1113.2979288955748) rotate(0 22.666666666666686 45.33333333333337)"><path d="M0 0 L45.33 0 L45.33 90.67 L0 90.67" stroke="none" stroke-width="0" fill="#12b886"></path><path d="M0 0 C14.9 0, 29.79 0, 45.33 0 M0 0 C14.22 0, 28.44 0, 45.33 0 M45.33 0 C45.33 23.55, 45.33 47.1, 45.33 90.67 M45.33 0 C45.33 31.96, 45.33 63.92, 45.33 90.67 M45.33 90.67 C28.28 90.67, 11.22 90.67, 0 90.67 M45.33 90.67 C35.33 90.67, 25.33 90.67, 0 90.67 M0 90.67 C0 60.76, 0 30.86, 0 0 M0 90.67 C0 61.17, 0 31.67, 0 0" stroke="#000000" stroke-width="1" fill="none"></path></g><g stroke-opacity="0.7" fill-opacity="0.7" stroke-linecap="round" transform="translate(803.6616695433047 1185.8383730670018) rotate(270 1.7993384915720867 6.985667084926888)"><path d="M0 0 L3.6 0 L3.6 13.97 L0 13.97" stroke="none" stroke-width="0" fill="#fab005"></path><path d="M0 0 C1.43 0, 2.86 0, 3.6 0 M0 0 C0.89 0, 1.78 0, 3.6 0 M3.6 0 C3.6 5.39, 3.6 10.77, 3.6 13.97 M3.6 0 C3.6 4.27, 3.6 8.53, 3.6 13.97 M3.6 13.97 C2.71 13.97, 1.83 13.97, 0 13.97 M3.6 13.97 C2.47 13.97, 1.34 13.97, 0 13.97 M0 13.97 C0 10.43, 0 6.89, 0 0 M0 13.97 C0 8.76, 0 3.54, 0 0" stroke="#000000" stroke-width="1" fill="none"></path></g><g stroke-opacity="0.7" fill-opacity="0.7" stroke-linecap="round" transform="translate(803.6616695433052 1189.418371795907) rotate(270 1.7993384915720867 6.985667084926888)"><path d="M0 0 L3.6 0 L3.6 13.97 L0 13.97" stroke="none" stroke-width="0" fill="#fab005"></path><path d="M0 0 C1.3 0, 2.59 0, 3.6 0 M0 0 C0.84 0, 1.68 0, 3.6 0 M3.6 0 C3.6 2.82, 3.6 5.64, 3.6 13.97 M3.6 0 C3.6 5.19, 3.6 10.38, 3.6 13.97 M3.6 13.97 C2.44 13.97, 1.29 13.97, 0 13.97 M3.6 13.97 C2.21 13.97, 0.81 13.97, 0 13.97 M0 13.97 C0 8.39, 0 2.81, 0 0 M0 13.97 C0 8.93, 0 3.9, 0 0" stroke="#000000" stroke-width="1" fill="none"></path></g><g stroke-opacity="0.7" fill-opacity="0.7" stroke-linecap="round" transform="translate(803.6616695433052 1178.6379060583397) rotate(270 1.7993384915720867 6.985667084926888)"><path d="M0 0 L3.6 0 L3.6 13.97 L0 13.97" stroke="none" stroke-width="0" fill="#fab005"></path><path d="M0 0 C1.39 0, 2.78 0, 3.6 0 M0 0 C0.95 0, 1.9 0, 3.6 0 M3.6 0 C3.6 5.47, 3.6 10.94, 3.6 13.97 M3.6 0 C3.6 4.36, 3.6 8.71, 3.6 13.97 M3.6 13.97 C2.72 13.97, 1.84 13.97, 0 13.97 M3.6 13.97 C2.51 13.97, 1.41 13.97, 0 13.97 M0 13.97 C0 9.13, 0 4.29, 0 0 M0 13.97 C0 8.96, 0 3.95, 0 0" stroke="#000000" stroke-width="1" fill="none"></path></g><g stroke-opacity="0.7" fill-opacity="0.7" stroke-linecap="round" transform="translate(803.6616695433047 1182.2179047872444) rotate(270 1.7993384915720867 6.985667084926888)"><path d="M0 0 L3.6 0 L3.6 13.97 L0 13.97" stroke="none" stroke-width="0" fill="#fab005"></path><path d="M0 0 C0.95 0, 1.9 0, 3.6 0 M0 0 C1.29 0, 2.57 0, 3.6 0 M3.6 0 C3.6 2.84, 3.6 5.67, 3.6 13.97 M3.6 0 C3.6 4.43, 3.6 8.86, 3.6 13.97 M3.6 13.97 C2.78 13.97, 1.97 13.97, 0 13.97 M3.6 13.97 C2.17 13.97, 0.75 13.97, 0 13.97 M0 13.97 C0 10.07, 0 6.17, 0 0 M0 13.97 C0 10.95, 0 7.93, 0 0" stroke="#000000" stroke-width="1" fill="none"></path></g><g stroke-opacity="0.7" fill-opacity="0.7" stroke-linecap="round" transform="translate(803.6616695433047 1171.393856456456) rotate(270 1.7993384915720867 6.985667084926888)"><path d="M0 0 L3.6 0 L3.6 13.97 L0 13.97" stroke="none" stroke-width="0" fill="#fab005"></path><path d="M0 0 C1.43 0, 2.87 0, 3.6 0 M0 0 C1.26 0, 2.52 0, 3.6 0 M3.6 0 C3.6 4.14, 3.6 8.29, 3.6 13.97 M3.6 0 C3.6 4.6, 3.6 9.21, 3.6 13.97 M3.6 13.97 C2.24 13.97, 0.88 13.97, 0 13.97 M3.6 13.97 C2.43 13.97, 1.27 13.97, 0 13.97 M0 13.97 C0 10.56, 0 7.15, 0 0 M0 13.97 C0 9.76, 0 5.55, 0 0" stroke="#000000" stroke-width="1" fill="none"></path></g><g stroke-opacity="0.7" fill-opacity="0.7" stroke-linecap="round" transform="translate(803.6616695433047 1174.9738551853627) rotate(270 1.7993384915720867 6.985667084926888)"><path d="M0 0 L3.6 0 L3.6 13.97 L0 13.97" stroke="none" stroke-width="0" fill="#fab005"></path><path d="M0 0 C0.83 0, 1.66 0, 3.6 0 M0 0 C1.03 0, 2.05 0, 3.6 0 M3.6 0 C3.6 3.84, 3.6 7.68, 3.6 13.97 M3.6 0 C3.6 4.1, 3.6 8.21, 3.6 13.97 M3.6 13.97 C2.8 13.97, 2 13.97, 0 13.97 M3.6 13.97 C2.65 13.97, 1.7 13.97, 0 13.97 M0 13.97 C0 9.67, 0 5.37, 0 0 M0 13.97 C0 10.81, 0 7.66, 0 0" stroke="#000000" stroke-width="1" fill="none"></path></g><g stroke-opacity="0.7" fill-opacity="0.7" stroke-linecap="round" transform="translate(803.6616695433052 1164.193389447793) rotate(270 1.7993384915720867 6.985667084926888)"><path d="M0 0 L3.6 0 L3.6 13.97 L0 13.97" stroke="none" stroke-width="0" fill="#fab005"></path><path d="M0 0 C0.78 0, 1.57 0, 3.6 0 M0 0 C1.11 0, 2.22 0, 3.6 0 M3.6 0 C3.6 4.13, 3.6 8.25, 3.6 13.97 M3.6 0 C3.6 3.75, 3.6 7.5, 3.6 13.97 M3.6 13.97 C2.66 13.97, 1.72 13.97, 0 13.97 M3.6 13.97 C2.57 13.97, 1.53 13.97, 0 13.97 M0 13.97 C0 8.61, 0 3.25, 0 0 M0 13.97 C0 11, 0 8.02, 0 0" stroke="#000000" stroke-width="1" fill="none"></path></g><g stroke-opacity="0.7" fill-opacity="0.7" stroke-linecap="round" transform="translate(803.6616695433052 1167.7733881767003) rotate(270 1.7993384915720867 6.985667084926888)"><path d="M0 0 L3.6 0 L3.6 13.97 L0 13.97" stroke="none" stroke-width="0" fill="#fab005"></path><path d="M0 0 C1.23 0, 2.46 0, 3.6 0 M0 0 C1.1 0, 2.2 0, 3.6 0 M3.6 0 C3.6 2.85, 3.6 5.69, 3.6 13.97 M3.6 0 C3.6 4.41, 3.6 8.82, 3.6 13.97 M3.6 13.97 C2.56 13.97, 1.51 13.97, 0 13.97 M3.6 13.97 C2.4 13.97, 1.19 13.97, 0 13.97 M0 13.97 C0 8.95, 0 3.93, 0 0 M0 13.97 C0 10.16, 0 6.35, 0 0" stroke="#000000" stroke-width="1" fill="none"></path></g><g stroke-opacity="0.7" fill-opacity="0.7" stroke-linecap="round" transform="translate(803.6616695433052 1157.0489572018491) rotate(270 1.7993384915720867 6.985667084926888)"><path d="M0 0 L3.6 0 L3.6 13.97 L0 13.97" stroke="none" stroke-width="0" fill="#fab005"></path><path d="M0 0 C0.85 0, 1.7 0, 3.6 0 M0 0 C1.06 0, 2.12 0, 3.6 0 M3.6 0 C3.6 2.95, 3.6 5.89, 3.6 13.97 M3.6 0 C3.6 3.85, 3.6 7.69, 3.6 13.97 M3.6 13.97 C2.33 13.97, 1.05 13.97, 0 13.97 M3.6 13.97 C2.79 13.97, 1.98 13.97, 0 13.97 M0 13.97 C0 10.22, 0 6.47, 0 0 M0 13.97 C0 9.74, 0 5.51, 0 0" stroke="#000000" stroke-width="1" fill="none"></path></g><g stroke-opacity="0.7" fill-opacity="0.7" stroke-linecap="round" transform="translate(803.6616695433052 1160.6289559307515) rotate(270 1.7993384915720867 6.985667084926888)"><path d="M0 0 L3.6 0 L3.6 13.97 L0 13.97" stroke="none" stroke-width="0" fill="#fab005"></path><path d="M0 0 C0.77 0, 1.54 0, 3.6 0 M0 0 C0.93 0, 1.86 0, 3.6 0 M3.6 0 C3.6 5.48, 3.6 10.97, 3.6 13.97 M3.6 0 C3.6 5.1, 3.6 10.19, 3.6 13.97 M3.6 13.97 C2.48 13.97, 1.35 13.97, 0 13.97 M3.6 13.97 C2.38 13.97, 1.15 13.97, 0 13.97 M0 13.97 C0 9.94, 0 5.91, 0 0 M0 13.97 C0 10.58, 0 7.19, 0 0" stroke="#000000" stroke-width="1" fill="none"></path></g><g stroke-opacity="0.7" fill-opacity="0.7" stroke-linecap="round" transform="translate(803.6616695433047 1149.848490193188) rotate(270 1.7993384915720867 6.985667084926888)"><path d="M0 0 L3.6 0 L3.6 13.97 L0 13.97" stroke="none" stroke-width="0" fill="#fab005"></path><path d="M0 0 C1.13 0, 2.26 0, 3.6 0 M0 0 C0.93 0, 1.87 0, 3.6 0 M3.6 0 C3.6 4.92, 3.6 9.85, 3.6 13.97 M3.6 0 C3.6 5.26, 3.6 10.51, 3.6 13.97 M3.6 13.97 C2.8 13.97, 2.01 13.97, 0 13.97 M3.6 13.97 C2.41 13.97, 1.22 13.97, 0 13.97 M0 13.97 C0 9.43, 0 4.88, 0 0 M0 13.97 C0 10.84, 0 7.71, 0 0" stroke="#000000" stroke-width="1" fill="none"></path></g><g stroke-opacity="0.7" fill-opacity="0.7" stroke-linecap="round" transform="translate(803.6616695433047 1153.4284889220926) rotate(270 1.7993384915720867 6.985667084926888)"><path d="M0 0 L3.6 0 L3.6 13.97 L0 13.97" stroke="none" stroke-width="0" fill="#fab005"></path><path d="M0 0 C0.89 0, 1.78 0, 3.6 0 M0 0 C1.39 0, 2.77 0, 3.6 0 M3.6 0 C3.6 4.27, 3.6 8.53, 3.6 13.97 M3.6 0 C3.6 3.44, 3.6 6.87, 3.6 13.97 M3.6 13.97 C2.47 13.97, 1.34 13.97, 0 13.97 M3.6 13.97 C2.69 13.97, 1.77 13.97, 0 13.97 M0 13.97 C0 8.76, 0 3.54, 0 0 M0 13.97 C0 10, 0 6.04, 0 0" stroke="#000000" stroke-width="1" fill="none"></path></g><g stroke-opacity="0.7" fill-opacity="0.7" stroke-linecap="round" transform="translate(803.6616695433047 1146.1844393202105) rotate(270 1.7993384915720867 6.985667084926888)"><path d="M0 0 L3.6 0 L3.6 13.97 L0 13.97" stroke="none" stroke-width="0" fill="#fab005"></path><path d="M0 0 C0.84 0, 1.68 0, 3.6 0 M0 0 C0.73 0, 1.45 0, 3.6 0 M3.6 0 C3.6 5.19, 3.6 10.38, 3.6 13.97 M3.6 0 C3.6 4.48, 3.6 8.97, 3.6 13.97 M3.6 13.97 C2.21 13.97, 0.81 13.97, 0 13.97 M3.6 13.97 C2.16 13.97, 0.72 13.97, 0 13.97 M0 13.97 C0 8.93, 0 3.9, 0 0 M0 13.97 C0 9.57, 0 5.17, 0 0" stroke="#000000" stroke-width="1" fill="none"></path></g><g stroke-opacity="0.7" fill-opacity="0.7" transform="translate(746.5107526881727 1147.686817784464) rotate(270 29.5 12)"><text x="29.5" y="19" font-family="Cascadia, Segoe UI Emoji" font-size="20px" fill="#000000" text-anchor="middle" style="white-space: pre;" direction="ltr">1 OSD</text></g><g transform="translate(889.0833333333327 1346.6384274062289) rotate(0 200.5 11.5)"><text x="200.5" y="18" font-family="Helvetica, Segoe UI Emoji" font-size="20px" fill="#000000" text-anchor="middle" style="white-space: pre;" direction="ltr">NVMe-over-RDMA (on ramdisk or hdd target)</text></g><g transform="translate(10 1108.4616800123645) rotate(0 36 41)"><text x="36" y="66" font-family="Helvetica, Segoe UI Emoji" font-size="72px" fill="#000000" text-anchor="middle" style="white-space: pre;" direction="ltr">C.</text></g><g stroke-opacity="0.7" fill-opacity="0.7" stroke-linecap="round" transform="translate(1160.8158068783055 1043.7950133456982) rotate(0 124.95502645502654 105.66666666666669)"><path d="M0 0 L249.91 0 L249.91 211.33 L0 211.33" stroke="none" stroke-width="0" fill="#ced4da"></path><path d="M0 0 C50.35 0, 100.71 0, 249.91 0 M0 0 C66.7 0, 133.4 0, 249.91 0 M249.91 0 C249.91 72.44, 249.91 144.88, 249.91 211.33 M249.91 0 C249.91 65.06, 249.91 130.13, 249.91 211.33 M249.91 211.33 C190.38 211.33, 130.84 211.33, 0 211.33 M249.91 211.33 C197.12 211.33, 144.33 211.33, 0 211.33 M0 211.33 C0 136.46, 0 61.59, 0 0 M0 211.33 C0 136.77, 0 62.21, 0 0" stroke="#000000" stroke-width="1" fill="none"></path></g><g stroke-opacity="0.7" fill-opacity="0.7" transform="translate(1244.7708333333321 1083.9600066728494) rotate(0 41 34)"><text x="41" y="27" font-family="Cascadia, Segoe UI Emoji" font-size="28px" fill="#000000" text-anchor="middle" style="white-space: pre;" direction="ltr">1 MON</text><text x="41" y="61" font-family="Cascadia, Segoe UI Emoji" font-size="28px" fill="#000000" text-anchor="middle" style="white-space: pre;" direction="ltr">1 MGR</text></g><g stroke-opacity="0.4" fill-opacity="0.4" stroke-linecap="round" transform="translate(1179.04861111111 1174.2966866852146) rotate(0 106.72222222222229 28.333333333333314)"><path d="M0 0 C0 0, 0 0, 0 0 M0 0 C0 0, 0 0, 0 0 M-0.26 6.4 C1.45 4.43, 3.16 2.46, 4.99 0.36 M-0.26 6.4 C0.98 4.97, 2.23 3.53, 4.99 0.36 M0.13 12.04 C3.33 8.36, 6.53 4.68, 10.63 -0.03 M0.13 12.04 C3.81 7.81, 7.49 3.58, 10.63 -0.03 M-0.13 18.44 C3.12 14.71, 6.36 10.97, 15.62 0.33 M-0.13 18.44 C4.61 12.99, 9.35 7.54, 15.62 0.33 M0.27 24.08 C5.98 17.51, 11.7 10.93, 21.26 -0.07 M0.27 24.08 C7.9 15.3, 15.53 6.53, 21.26 -0.07 M0 30.48 C5.69 23.94, 11.37 17.41, 26.25 0.29 M0 30.48 C9.38 19.69, 18.76 8.9, 26.25 0.29 M-0.26 36.88 C10.71 24.27, 21.67 11.65, 31.89 -0.1 M-0.26 36.88 C7.12 28.39, 14.5 19.91, 31.89 -0.1 M0.14 42.52 C9.52 31.73, 18.9 20.93, 36.88 0.26 M0.14 42.52 C8.74 32.63, 17.34 22.73, 36.88 0.26 M-0.12 48.92 C16.74 29.51, 33.61 10.11, 42.52 -0.14 M-0.12 48.92 C13.31 33.46, 26.75 18.01, 42.52 -0.14 M0.27 54.56 C16.46 35.94, 32.64 17.32, 47.51 0.22 M0.27 54.56 C13.81 38.98, 27.36 23.4, 47.51 0.22 M1.98 58.69 C19.47 38.58, 36.95 18.46, 53.15 -0.17 M1.98 58.69 C12.98 46.04, 23.98 33.38, 53.15 -0.17 M7.62 58.3 C18.75 45.5, 29.88 32.69, 58.14 0.19 M7.62 58.3 C27.78 35.11, 47.94 11.92, 58.14 0.19 M12.61 58.66 C28.34 40.56, 44.08 22.46, 63.78 -0.21 M12.61 58.66 C30.63 37.93, 48.66 17.19, 63.78 -0.21 M18.25 58.27 C36.04 37.8, 53.84 17.33, 68.77 0.15 M18.25 58.27 C37.61 36, 56.97 13.72, 68.77 0.15 M23.24 58.63 C35.65 44.35, 48.06 30.07, 74.41 -0.24 M23.24 58.63 C42.57 36.39, 61.89 14.16, 74.41 -0.24 M28.88 58.23 C45.25 39.4, 61.61 20.58, 79.4 0.12 M28.88 58.23 C48.04 36.2, 67.19 14.16, 79.4 0.12 M33.87 58.59 C50.17 39.84, 66.47 21.09, 85.04 -0.28 M33.87 58.59 C52.83 36.78, 71.79 14.96, 85.04 -0.28 M39.51 58.2 C51.8 44.06, 64.08 29.93, 90.03 0.08 M39.51 58.2 C52.4 43.37, 65.29 28.54, 90.03 0.08 M44.5 58.56 C61.33 39.19, 78.17 19.83, 95.67 -0.31 M44.5 58.56 C56.69 44.54, 68.87 30.52, 95.67 -0.31 M50.14 58.16 C67.28 38.44, 84.43 18.72, 100.66 0.05 M50.14 58.16 C60.63 46.1, 71.11 34.04, 100.66 0.05 M55.13 58.52 C69.93 41.5, 84.73 24.47, 106.3 -0.34 M55.13 58.52 C71.29 39.93, 87.45 21.34, 106.3 -0.34 M60.12 58.88 C78.73 37.47, 97.34 16.06, 111.29 0.02 M60.12 58.88 C78.58 37.64, 97.04 16.4, 111.29 0.02 M65.76 58.49 C77.71 44.74, 89.66 30.99, 116.27 0.38 M65.76 58.49 C84.3 37.15, 102.85 15.82, 116.27 0.38 M70.75 58.85 C90.67 35.92, 110.6 13, 121.92 -0.02 M70.75 58.85 C89.55 37.22, 108.35 15.58, 121.92 -0.02 M76.39 58.45 C88.02 45.08, 99.64 31.7, 126.91 0.34 M76.39 58.45 C95.77 36.16, 115.16 13.86, 126.91 0.34 M81.38 58.81 C92.21 46.35, 103.04 33.89, 132.55 -0.05 M81.38 58.81 C92.03 46.55, 102.69 34.29, 132.55 -0.05 M87.02 58.42 C104.75 38.02, 122.48 17.63, 137.54 0.31 M87.02 58.42 C106.48 36.03, 125.95 13.63, 137.54 0.31 M92.01 58.78 C109.78 38.33, 127.56 17.88, 143.18 -0.09 M92.01 58.78 C112.07 35.7, 132.13 12.62, 143.18 -0.09 M97.65 58.38 C112.9 40.84, 128.14 23.3, 148.17 0.27 M97.65 58.38 C108.76 45.61, 119.86 32.83, 148.17 0.27 M102.64 58.74 C114.68 44.89, 126.72 31.04, 153.81 -0.12 M102.64 58.74 C120.84 37.8, 139.05 16.86, 153.81 -0.12 M108.28 58.35 C118.77 46.29, 129.25 34.22, 158.8 0.24 M108.28 58.35 C126.64 37.23, 145 16.11, 158.8 0.24 M113.27 58.71 C125.35 44.81, 137.44 30.91, 164.44 -0.16 M113.27 58.71 C126.8 43.14, 140.34 27.56, 164.44 -0.16 M118.91 58.32 C129.76 45.83, 140.61 33.35, 169.43 0.2 M118.91 58.32 C135.08 39.71, 151.25 21.11, 169.43 0.2 M123.9 58.68 C135.8 44.99, 147.69 31.3, 175.07 -0.19 M123.9 58.68 C134.72 46.22, 145.55 33.77, 175.07 -0.19 M129.54 58.28 C144.29 41.31, 159.05 24.34, 180.06 0.17 M129.54 58.28 C140.76 45.37, 151.98 32.46, 180.06 0.17 M134.53 58.64 C146.24 45.17, 157.95 31.7, 185.7 -0.23 M134.53 58.64 C145.69 45.8, 156.85 32.96, 185.7 -0.23 M140.17 58.25 C151.77 44.9, 163.37 31.55, 190.69 0.13 M140.17 58.25 C151.79 44.88, 163.41 31.51, 190.69 0.13 M145.16 58.61 C163.14 37.92, 181.12 17.23, 196.33 -0.26 M145.16 58.61 C157.12 44.85, 169.08 31.08, 196.33 -0.26 M150.8 58.21 C162.92 44.27, 175.04 30.33, 201.32 0.1 M150.8 58.21 C167.58 38.91, 184.36 19.6, 201.32 0.1 M155.79 58.57 C168.5 43.94, 181.22 29.32, 206.96 -0.3 M155.79 58.57 C172.98 38.79, 190.18 19.01, 206.96 -0.3 M161.43 58.18 C179.46 37.44, 197.49 16.7, 211.95 0.06 M161.43 58.18 C178.88 38.11, 196.32 18.04, 211.95 0.06 M166.42 58.54 C180.69 42.12, 194.96 25.7, 215.62 1.93 M166.42 58.54 C182.69 39.82, 198.96 21.11, 215.62 1.93 M172.06 58.14 C182.31 46.35, 192.56 34.56, 215.36 8.33 M172.06 58.14 C185.67 42.49, 199.27 26.84, 215.36 8.33 M177.05 58.5 C191.3 42.11, 205.54 25.72, 215.75 13.98 M177.05 58.5 C190.65 42.85, 204.25 27.2, 215.75 13.98 M182.03 58.86 C193.98 45.12, 205.93 31.37, 215.49 20.37 M182.03 58.86 C192.47 46.86, 202.9 34.86, 215.49 20.37 M187.68 58.47 C196.04 48.85, 204.4 39.23, 215.89 26.02 M187.68 58.47 C195.02 50.02, 202.37 41.57, 215.89 26.02 M192.66 58.83 C197.67 53.07, 202.67 47.32, 215.63 32.41 M192.66 58.83 C198.15 52.51, 203.64 46.2, 215.63 32.41 M198.31 58.43 C201.9 54.3, 205.5 50.16, 215.36 38.81 M198.31 58.43 C202.53 53.58, 206.75 48.72, 215.36 38.81 M203.29 58.79 C207.54 53.91, 211.79 49.02, 215.76 44.45 M203.29 58.79 C206.1 55.57, 208.91 52.34, 215.76 44.45 M208.94 58.4 C211.36 55.62, 213.77 52.83, 215.5 50.85 M208.94 58.4 C210.45 56.65, 211.97 54.91, 215.5 50.85 M-0.13 56.55 C-0.13 56.55, -0.13 56.55, -0.13 56.55 M-0.13 56.55 C-0.13 56.55, -0.13 56.55, -0.13 56.55 M6.26 56.81 C4.15 54.98, 2.04 53.14, 0.23 51.56 M6.26 56.81 C4.71 55.46, 3.15 54.11, 0.23 51.56 M11.91 56.42 C7.46 52.55, 3.01 48.68, -0.17 45.92 M11.91 56.42 C9.12 53.99, 6.33 51.57, -0.17 45.92 M18.31 56.68 C13.69 52.67, 9.08 48.66, 0.19 40.93 M18.31 56.68 C12.85 51.93, 7.39 47.19, 0.19 40.93 M24.7 56.94 C19.07 52.05, 13.45 47.16, -0.2 35.29 M24.7 56.94 C18.49 51.54, 12.27 46.13, -0.2 35.29 M30.35 56.55 C21.06 48.48, 11.78 40.41, 0.16 30.3 M30.35 56.55 C22.35 49.6, 14.36 42.65, 0.16 30.3 M36.74 56.81 C27.47 48.75, 18.19 40.68, -0.24 24.66 M36.74 56.81 C24.72 46.36, 12.71 35.91, -0.24 24.66 M42.39 56.41 C31.71 47.13, 21.02 37.84, 0.12 19.67 M42.39 56.41 C26.37 42.49, 10.36 28.57, 0.12 19.67 M48.78 56.67 C35.35 44.99, 21.91 33.31, -0.27 14.03 M48.78 56.67 C32.75 42.74, 16.72 28.8, -0.27 14.03 M55.18 56.94 C35.48 39.81, 15.79 22.69, 0.09 9.04 M55.18 56.94 C44.04 47.25, 32.89 37.56, 0.09 9.04 M60.83 56.54 C39.54 38.04, 18.25 19.53, -0.31 3.4 M60.83 56.54 C39.25 37.78, 17.66 19.02, -0.31 3.4 M67.22 56.8 C53.23 44.64, 39.24 32.47, 0.81 -0.93 M67.22 56.8 C52.47 43.98, 37.72 31.16, 0.81 -0.93 M72.87 56.41 C49.98 36.52, 27.1 16.62, 7.21 -0.67 M72.87 56.41 C51.23 37.6, 29.59 18.79, 7.21 -0.67 M79.26 56.67 C57.82 38.03, 36.38 19.39, 12.85 -1.06 M79.26 56.67 C62.44 42.04, 45.61 27.42, 12.85 -1.06 M85.66 56.93 C61 35.49, 36.34 14.05, 19.25 -0.8 M85.66 56.93 C71.67 44.77, 57.68 32.61, 19.25 -0.8 M91.31 56.54 C69.61 37.68, 47.92 18.82, 24.89 -1.2 M91.31 56.54 C75.42 42.72, 59.53 28.91, 24.89 -1.2 M97.7 56.8 C75.43 37.44, 53.17 18.08, 31.29 -0.94 M97.7 56.8 C72.56 34.94, 47.42 13.09, 31.29 -0.94 M103.35 56.4 C78.63 34.92, 53.91 13.43, 37.69 -0.67 M103.35 56.4 C86.86 42.07, 70.37 27.74, 37.69 -0.67 M109.74 56.66 C84.46 34.69, 59.18 12.71, 43.33 -1.07 M109.74 56.66 C93.56 42.6, 77.38 28.53, 43.33 -1.07 M116.14 56.93 C92.99 36.8, 69.83 16.67, 49.73 -0.81 M116.14 56.93 C96.99 40.27, 77.83 23.62, 49.73 -0.81 M121.78 56.53 C103.86 40.95, 85.94 25.37, 55.37 -1.2 M121.78 56.53 C105.55 42.42, 89.31 28.3, 55.37 -1.2 M128.18 56.79 C112.15 42.86, 96.12 28.92, 61.77 -0.94 M128.18 56.79 C109.67 40.7, 91.15 24.6, 61.77 -0.94 M133.83 56.4 C108.43 34.32, 83.03 12.24, 68.17 -0.68 M133.83 56.4 C117.56 42.26, 101.3 28.12, 68.17 -0.68 M140.22 56.66 C115.33 35.02, 90.45 13.39, 73.81 -1.07 M140.22 56.66 C121.76 40.61, 103.31 24.57, 73.81 -1.07 M146.62 56.92 C124.19 37.43, 101.77 17.93, 80.21 -0.81 M146.62 56.92 C123.5 36.83, 100.39 16.73, 80.21 -0.81 M152.26 56.53 C126.32 33.97, 100.37 11.42, 85.85 -1.21 M152.26 56.53 C134.36 40.96, 116.45 25.39, 85.85 -1.21 M158.66 56.79 C135.4 36.57, 112.14 16.34, 92.25 -0.95 M158.66 56.79 C140.83 41.29, 123 25.79, 92.25 -0.95 M164.31 56.39 C147.69 41.95, 131.08 27.51, 98.65 -0.68 M164.31 56.39 C140.28 35.51, 116.25 14.62, 98.65 -0.68 M170.7 56.65 C152.48 40.82, 134.26 24.98, 104.29 -1.08 M170.7 56.65 C146.79 35.87, 122.89 15.09, 104.29 -1.08 M177.1 56.92 C160.67 42.63, 144.24 28.35, 110.69 -0.82 M177.1 56.92 C163.37 44.98, 149.63 33.04, 110.69 -0.82 M182.74 56.52 C157.4 34.49, 132.06 12.46, 116.33 -1.21 M182.74 56.52 C169.35 44.88, 155.95 33.23, 116.33 -1.21 M189.14 56.78 C163.81 34.76, 138.48 12.74, 122.73 -0.95 M189.14 56.78 C165.19 35.97, 141.25 15.15, 122.73 -0.95 M194.78 56.39 C170.79 35.53, 146.8 14.67, 129.12 -0.69 M194.78 56.39 C181.59 44.92, 168.39 33.45, 129.12 -0.69 M201.18 56.65 C175.64 34.45, 150.1 12.24, 134.77 -1.08 M201.18 56.65 C179.7 37.97, 158.21 19.29, 134.77 -1.08 M207.58 56.91 C184.91 37.21, 162.25 17.5, 141.17 -0.82 M207.58 56.91 C181.47 34.21, 155.36 11.52, 141.17 -0.82 M213.22 56.52 C192.76 38.73, 172.3 20.94, 146.81 -1.22 M213.22 56.52 C191.96 38.03, 170.7 19.55, 146.81 -1.22 M215.85 53.5 C200.41 40.08, 184.97 26.66, 153.21 -0.95 M215.85 53.5 C200.71 40.34, 185.56 27.17, 153.21 -0.95 M216.21 48.51 C197.8 32.51, 179.39 16.5, 159.6 -0.69 M216.21 48.51 C199.06 33.6, 181.91 18.69, 159.6 -0.69 M215.81 42.87 C203.68 32.32, 191.54 21.77, 165.25 -1.09 M215.81 42.87 C203.76 32.39, 191.7 21.91, 165.25 -1.09 M216.17 37.88 C201.43 25.07, 186.69 12.25, 171.65 -0.83 M216.17 37.88 C200.46 24.22, 184.75 10.57, 171.65 -0.83 M215.78 32.24 C204.12 22.1, 192.46 11.97, 177.29 -1.22 M215.78 32.24 C204.12 22.1, 192.46 11.97, 177.29 -1.22 M216.14 27.25 C205.02 17.59, 193.91 7.93, 183.69 -0.96 M216.14 27.25 C207.1 19.4, 198.07 11.54, 183.69 -0.96 M215.74 21.61 C209.63 16.29, 203.52 10.98, 190.08 -0.7 M215.74 21.61 C205.91 13.06, 196.08 4.51, 190.08 -0.7 M216.1 16.62 C210.02 11.34, 203.94 6.05, 195.73 -1.09 M216.1 16.62 C211.69 12.78, 207.27 8.94, 195.73 -1.09 M215.71 10.98 C212.04 7.78, 208.36 4.59, 202.12 -0.83 M215.71 10.98 C212.24 7.96, 208.77 4.95, 202.12 -0.83 M216.07 5.99 C213.92 4.12, 211.76 2.25, 207.77 -1.23 M216.07 5.99 C214.14 4.31, 212.2 2.63, 207.77 -1.23" stroke="#4c6ef5" stroke-width="0.5" fill="none"></path><path d="M0 0 C52.88 0, 105.76 0, 213.44 0 M213.44 0 C213.44 20.22, 213.44 40.44, 213.44 56.67 M213.44 56.67 C128.22 56.67, 43 56.67, 0 56.67 M0 56.67 C0 41.56, 0 26.46, 0 0" stroke="#5f3dc4" stroke-width="1.5" fill="none" stroke-dasharray="1.5 7"></path></g><g stroke-opacity="0.7" fill-opacity="0.7" transform="translate(1188.4930555555543 1184.6855755741033) rotate(0 97.27777777777783 17.9444444444444)"><text x="97.27777777777784" y="28.888888888888893" font-family="Cascadia, Segoe UI Emoji" font-size="30.222222222222236px" fill="#000000" text-anchor="middle" style="white-space: pre;" direction="ltr">ramdisk/hdd</text></g><g stroke-linecap="round"><g stroke-opacity="0.7" fill-opacity="0.7" transform="translate(469.10416666666663 1149.461680012365) rotate(0 141.66666666666669 0)"><path d="M0 0 C47.22 0, 236.11 0, 283.33 0 M0 0 C47.22 0, 236.11 0, 283.33 0" stroke="#000000" stroke-width="2" fill="none"></path></g><g stroke-opacity="0.7" fill-opacity="0.7" transform="translate(469.10416666666663 1149.461680012365) rotate(0 141.66666666666669 0)"><path d="M28.19 -10.26 C21.02 -7.65, 13.84 -5.04, 0 0 M28.19 -10.26 C21.54 -7.84, 14.89 -5.42, 0 0" stroke="#000000" stroke-width="2" fill="none"></path></g><g stroke-opacity="0.7" fill-opacity="0.7" transform="translate(469.10416666666663 1149.461680012365) rotate(0 141.66666666666669 0)"><path d="M28.19 10.26 C21.02 7.65, 13.84 5.04, 0 0 M28.19 10.26 C21.54 7.84, 14.89 5.42, 0 0" stroke="#000000" stroke-width="2" fill="none"></path></g><g stroke-opacity="0.7" fill-opacity="0.7" transform="translate(469.10416666666663 1149.461680012365) rotate(0 141.66666666666669 0)"><path d="M255.14 10.26 C262.32 7.65, 269.49 5.04, 283.33 0 M255.14 10.26 C261.79 7.84, 268.44 5.42, 283.33 0" stroke="#000000" stroke-width="2" fill="none"></path></g><g stroke-opacity="0.7" fill-opacity="0.7" transform="translate(469.10416666666663 1149.461680012365) rotate(0 141.66666666666669 0)"><path d="M255.14 -10.26 C262.32 -7.65, 269.49 -5.04, 283.33 0 M255.14 -10.26 C261.79 -7.84, 268.44 -5.42, 283.33 0" stroke="#000000" stroke-width="2" fill="none"></path></g></g><g stroke-linecap="round"><g stroke-opacity="0.7" fill-opacity="0.7" transform="translate(971.104166666666 1149.461680012365) rotate(0 95.61028192371214 0)"><path d="M0 0 C31.87 0, 159.35 0, 191.22 0 M0 0 C31.87 0, 159.35 0, 191.22 0" stroke="#000000" stroke-width="2" fill="none"></path></g><g stroke-opacity="0.7" fill-opacity="0.7" transform="translate(971.104166666666 1149.461680012365) rotate(0 95.61028192371214 0)"><path d="M28.19 -10.26 C21.28 -7.74, 14.36 -5.23, 0 0 M28.19 -10.26 C19.29 -7.02, 10.39 -3.78, 0 0" stroke="#000000" stroke-width="2" fill="none"></path></g><g stroke-opacity="0.7" fill-opacity="0.7" transform="translate(971.104166666666 1149.461680012365) rotate(0 95.61028192371214 0)"><path d="M28.19 10.26 C21.28 7.74, 14.36 5.23, 0 0 M28.19 10.26 C19.29 7.02, 10.39 3.78, 0 0" stroke="#000000" stroke-width="2" fill="none"></path></g><g stroke-opacity="0.7" fill-opacity="0.7" transform="translate(971.104166666666 1149.461680012365) rotate(0 95.61028192371214 0)"><path d="M163.03 10.26 C169.95 7.74, 176.86 5.23, 191.22 0 M163.03 10.26 C171.93 7.02, 180.83 3.78, 191.22 0" stroke="#000000" stroke-width="2" fill="none"></path></g><g stroke-opacity="0.7" fill-opacity="0.7" transform="translate(971.104166666666 1149.461680012365) rotate(0 95.61028192371214 0)"><path d="M163.03 -10.26 C169.95 -7.74, 176.86 -5.23, 191.22 0 M163.03 -10.26 C171.93 -7.02, 180.83 -3.78, 191.22 0" stroke="#000000" stroke-width="2" fill="none"></path></g></g><g stroke-opacity="0.8" fill-opacity="0.8" transform="translate(1026.3811152570452 1118.6257701184547) rotate(0 41 12)"><text x="41" y="19" font-family="Cascadia, Segoe UI Emoji" font-size="20px" fill="#c92a2a" text-anchor="middle" style="white-space: pre;" direction="ltr">100Gbps</text></g><g stroke-opacity="0.8" fill-opacity="0.8" transform="translate(569.7708333333333 1118.6257701184547) rotate(0 41 12)"><text x="41" y="19" font-family="Cascadia, Segoe UI Emoji" font-size="20px" fill="#c92a2a" text-anchor="middle" style="white-space: pre;" direction="ltr">100Gbps</text></g><g stroke-opacity="0.4" fill-opacity="0.4" stroke-linecap="round" transform="translate(188.91666666666652 596.0748244401315) rotate(0 140.72222222222234 119.00000000000006)"><path d="M0 0 L281.44 0 L281.44 238 L0 238" stroke="none" stroke-width="0" fill="#ced4da"></path><path d="M0 0 C67.28 0, 134.56 0, 281.44 0 M0 0 C62.14 0, 124.29 0, 281.44 0 M281.44 0 C281.44 75.74, 281.44 151.49, 281.44 238 M281.44 0 C281.44 63.04, 281.44 126.07, 281.44 238 M281.44 238 C179.84 238, 78.24 238, 0 238 M281.44 238 C214.28 238, 147.12 238, 0 238 M0 238 C0 166.37, 0 94.73, 0 0 M0 238 C0 170.59, 0 103.17, 0 0" stroke="#000000" stroke-width="1" fill="none"></path></g><g stroke-opacity="0.7" fill-opacity="0.7" transform="translate(232.1388888888888 697.0748244401315) rotate(0 97.5 18)"><text x="97.5" y="29" font-family="Cascadia, Segoe UI Emoji" font-size="30.222222222222236px" fill="#000000" text-anchor="middle" style="white-space: pre;" direction="ltr">rados-bench</text></g><g stroke-opacity="0.7" fill-opacity="0.7" transform="translate(746.5107526881718 719.1724347643409) rotate(270 29.5 12)"><text x="29.5" y="19" font-family="Cascadia, Segoe UI Emoji" font-size="20px" fill="#000000" text-anchor="middle" style="white-space: pre;" direction="ltr">1 OSD</text></g><g transform="translate(676.3690476190462 878.124044386107) rotate(0 200.5 11.5)"><text x="200.5" y="18" font-family="Helvetica, Segoe UI Emoji" font-size="20px" fill="#000000" text-anchor="middle" style="white-space: pre;" direction="ltr">NVMe-over-RDMA (on ramdisk or hdd target)</text></g><g transform="translate(12 674.0748244401315) rotate(0 34 41)"><text x="34" y="66" font-family="Helvetica, Segoe UI Emoji" font-size="72px" fill="#000000" text-anchor="middle" style="white-space: pre;" direction="ltr">B.</text></g><g stroke-linecap="round"><g stroke-opacity="0.7" fill-opacity="0.7" transform="translate(469.10416666666674 720.9472969922418) rotate(0 141.66666666666669 0)"><path d="M0 0 C47.22 0, 236.11 0, 283.33 0 M0 0 C47.22 0, 236.11 0, 283.33 0" stroke="#000000" stroke-width="2" fill="none"></path></g><g stroke-opacity="0.7" fill-opacity="0.7" transform="translate(469.10416666666674 720.9472969922418) rotate(0 141.66666666666669 0)"><path d="M28.19 -10.26 C20.67 -7.52, 13.15 -4.79, 0 0 M28.19 -10.26 C20.97 -7.63, 13.75 -5.01, 0 0" stroke="#000000" stroke-width="2" fill="none"></path></g><g stroke-opacity="0.7" fill-opacity="0.7" transform="translate(469.10416666666674 720.9472969922418) rotate(0 141.66666666666669 0)"><path d="M28.19 10.26 C20.67 7.52, 13.15 4.79, 0 0 M28.19 10.26 C20.97 7.63, 13.75 5.01, 0 0" stroke="#000000" stroke-width="2" fill="none"></path></g><g stroke-opacity="0.7" fill-opacity="0.7" transform="translate(469.10416666666674 720.9472969922418) rotate(0 141.66666666666669 0)"><path d="M255.14 10.26 C262.66 7.52, 270.18 4.79, 283.33 0 M255.14 10.26 C262.36 7.63, 269.58 5.01, 283.33 0" stroke="#000000" stroke-width="2" fill="none"></path></g><g stroke-opacity="0.7" fill-opacity="0.7" transform="translate(469.10416666666674 720.9472969922418) rotate(0 141.66666666666669 0)"><path d="M255.14 -10.26 C262.66 -7.52, 270.18 -4.79, 283.33 0 M255.14 -10.26 C262.36 -7.63, 269.58 -5.01, 283.33 0" stroke="#000000" stroke-width="2" fill="none"></path></g></g><g stroke-opacity="0.8" fill-opacity="0.8" transform="translate(569.7708333333328 690.1113870983319) rotate(0 41 12)"><text x="41" y="19" font-family="Cascadia, Segoe UI Emoji" font-size="20px" fill="#c92a2a" text-anchor="middle" style="white-space: pre;" direction="ltr">100Gbps</text></g><g stroke-opacity="0.7" fill-opacity="0.7" stroke-linecap="round" transform="translate(809.7978670634918 609.4081577734647) rotate(0 124.95502645502648 105.66666666666674)"><path d="M0 0 L249.91 0 L249.91 211.33 L0 211.33" stroke="none" stroke-width="0" fill="#ced4da"></path><path d="M0 0 C53.47 0, 106.94 0, 249.91 0 M0 0 C59.08 0, 118.16 0, 249.91 0 M249.91 0 C249.91 78.98, 249.91 157.96, 249.91 211.33 M249.91 0 C249.91 71.77, 249.91 143.54, 249.91 211.33 M249.91 211.33 C197.27 211.33, 144.64 211.33, 0 211.33 M249.91 211.33 C166.06 211.33, 82.22 211.33, 0 211.33 M0 211.33 C0 130.99, 0 50.64, 0 0 M0 211.33 C0 149.34, 0 87.34, 0 0" stroke="#000000" stroke-width="1" fill="none"></path></g><g stroke-opacity="0.7" fill-opacity="0.7" transform="translate(893.7528935185185 649.5731511006162) rotate(0 41.00000000000006 34)"><text x="41" y="27" font-family="Cascadia, Segoe UI Emoji" font-size="28px" fill="#000000" text-anchor="middle" style="white-space: pre;" direction="ltr">1 MON</text><text x="41" y="61" font-family="Cascadia, Segoe UI Emoji" font-size="28px" fill="#000000" text-anchor="middle" style="white-space: pre;" direction="ltr">1 MGR</text></g><g stroke-opacity="0.4" fill-opacity="0.4" stroke-linecap="round" transform="translate(828.0306712962958 739.9098311129808) rotate(0 106.72222222222223 28.333333333333314)"><path d="M0 0 C0 0, 0 0, 0 0 M0 0 C0 0, 0 0, 0 0 M-0.26 6.4 C1.72 4.12, 3.71 1.83, 4.99 0.36 M-0.26 6.4 C1.78 4.05, 3.81 1.71, 4.99 0.36 M0.13 12.04 C3.41 8.28, 6.68 4.51, 10.63 -0.03 M0.13 12.04 C3.5 8.17, 6.86 4.3, 10.63 -0.03 M-0.13 18.44 C3.32 14.47, 6.78 10.5, 15.62 0.33 M-0.13 18.44 C3.57 14.18, 7.27 9.92, 15.62 0.33 M0.27 24.08 C8.42 14.7, 16.58 5.32, 21.26 -0.07 M0.27 24.08 C8.33 14.81, 16.39 5.54, 21.26 -0.07 M0 30.48 C9.92 19.07, 19.83 7.67, 26.25 0.29 M0 30.48 C7.49 21.86, 14.98 13.25, 26.25 0.29 M-0.26 36.88 C8.37 26.95, 17 17.02, 31.89 -0.1 M-0.26 36.88 C6.83 28.73, 13.91 20.58, 31.89 -0.1 M0.14 42.52 C8.15 33.31, 16.16 24.09, 36.88 0.26 M0.14 42.52 C8.56 32.83, 16.99 23.13, 36.88 0.26 M-0.12 48.92 C13.25 33.54, 26.62 18.16, 42.52 -0.14 M-0.12 48.92 C8.82 38.63, 17.76 28.35, 42.52 -0.14 M0.27 54.56 C15.6 36.93, 30.92 19.3, 47.51 0.22 M0.27 54.56 C14.99 37.62, 29.72 20.69, 47.51 0.22 M1.98 58.69 C20.2 37.74, 38.41 16.78, 53.15 -0.17 M1.98 58.69 C14.07 44.78, 26.17 30.86, 53.15 -0.17 M7.62 58.3 C17.83 46.56, 28.04 34.81, 58.14 0.19 M7.62 58.3 C19.33 44.83, 31.04 31.36, 58.14 0.19 M12.61 58.66 C33 35.2, 53.39 11.75, 63.78 -0.21 M12.61 58.66 C32.56 35.71, 52.51 12.76, 63.78 -0.21 M18.25 58.27 C37.25 36.41, 56.25 14.56, 68.77 0.15 M18.25 58.27 C30.56 44.11, 42.86 29.95, 68.77 0.15 M23.24 58.63 C39.3 40.15, 55.35 21.68, 74.41 -0.24 M23.24 58.63 C36.74 43.09, 50.24 27.56, 74.41 -0.24 M28.88 58.23 C43.63 41.27, 58.38 24.3, 79.4 0.12 M28.88 58.23 C41.82 43.35, 54.75 28.47, 79.4 0.12 M33.87 58.59 C51.53 38.27, 69.19 17.96, 85.04 -0.28 M33.87 58.59 C47.03 43.45, 60.18 28.32, 85.04 -0.28 M39.51 58.2 C50.4 45.67, 61.29 33.14, 90.03 0.08 M39.51 58.2 C56.31 38.87, 73.11 19.55, 90.03 0.08 M44.5 58.56 C55.04 46.43, 65.58 34.3, 95.67 -0.31 M44.5 58.56 C58.46 42.49, 72.43 26.43, 95.67 -0.31 M50.14 58.16 C66.97 38.8, 83.8 19.45, 100.66 0.05 M50.14 58.16 C69.9 35.43, 89.66 12.7, 100.66 0.05 M55.13 58.52 C74.59 36.14, 94.05 13.75, 106.3 -0.34 M55.13 58.52 C66.34 45.62, 77.56 32.72, 106.3 -0.34 M60.12 58.88 C72.96 44.11, 85.81 29.33, 111.29 0.02 M60.12 58.88 C75.71 40.94, 91.31 23, 111.29 0.02 M65.76 58.49 C76.97 45.59, 88.19 32.69, 116.27 0.38 M65.76 58.49 C81.35 40.56, 96.93 22.62, 116.27 0.38 M70.75 58.85 C85.9 41.42, 101.05 23.99, 121.92 -0.02 M70.75 58.85 C81.03 47.02, 91.3 35.2, 121.92 -0.02 M76.39 58.45 C89.3 43.6, 102.21 28.75, 126.91 0.34 M76.39 58.45 C94.5 37.62, 112.61 16.79, 126.91 0.34 M81.38 58.81 C92.4 46.13, 103.42 33.45, 132.55 -0.05 M81.38 58.81 C99.89 37.52, 118.39 16.23, 132.55 -0.05 M87.02 58.42 C100.96 42.39, 114.89 26.35, 137.54 0.31 M87.02 58.42 C101.72 41.51, 116.42 24.6, 137.54 0.31 M92.01 58.78 C106.15 42.51, 120.29 26.24, 143.18 -0.09 M92.01 58.78 C108.59 39.7, 125.18 20.62, 143.18 -0.09 M97.65 58.38 C110.17 43.98, 122.7 29.57, 148.17 0.27 M97.65 58.38 C109.41 44.85, 121.17 31.32, 148.17 0.27 M102.64 58.74 C121.4 37.16, 140.17 15.57, 153.81 -0.12 M102.64 58.74 C122.07 36.39, 141.5 14.04, 153.81 -0.12 M108.28 58.35 C118.74 46.32, 129.2 34.29, 158.8 0.24 M108.28 58.35 C119.16 45.84, 130.04 33.32, 158.8 0.24 M113.27 58.71 C128.34 41.37, 143.4 24.04, 164.44 -0.16 M113.27 58.71 C127.33 42.53, 141.39 26.36, 164.44 -0.16 M118.91 58.32 C137.04 37.45, 155.18 16.59, 169.43 0.2 M118.91 58.32 C132.79 42.35, 146.66 26.39, 169.43 0.2 M123.9 58.68 C138.63 41.72, 153.37 24.77, 175.07 -0.19 M123.9 58.68 C139.77 40.41, 155.64 22.15, 175.07 -0.19 M129.54 58.28 C148.72 36.22, 167.9 14.15, 180.06 0.17 M129.54 58.28 C147.3 37.84, 165.07 17.41, 180.06 0.17 M134.53 58.64 C149.67 41.22, 164.81 23.8, 185.7 -0.23 M134.53 58.64 C146.89 44.41, 159.26 30.19, 185.7 -0.23 M140.17 58.25 C156.11 39.91, 172.05 21.58, 190.69 0.13 M140.17 58.25 C159.96 35.48, 179.75 12.71, 190.69 0.13 M145.16 58.61 C159.86 41.7, 174.55 24.79, 196.33 -0.26 M145.16 58.61 C164.58 36.27, 184 13.93, 196.33 -0.26 M150.8 58.21 C165.1 41.76, 179.4 25.31, 201.32 0.1 M150.8 58.21 C163.18 43.97, 175.57 29.72, 201.32 0.1 M155.79 58.57 C173.76 37.9, 191.73 17.22, 206.96 -0.3 M155.79 58.57 C170.56 41.58, 185.33 24.58, 206.96 -0.3 M161.43 58.18 C180.09 36.72, 198.74 15.25, 211.95 0.06 M161.43 58.18 C179.95 36.87, 198.47 15.56, 211.95 0.06 M166.42 58.54 C185.97 36.04, 205.53 13.54, 215.62 1.93 M166.42 58.54 C180.63 42.18, 194.85 25.83, 215.62 1.93 M172.06 58.14 C186.41 41.63, 200.76 25.12, 215.36 8.33 M172.06 58.14 C185.73 42.41, 199.41 26.68, 215.36 8.33 M177.05 58.5 C186.95 47.11, 196.85 35.72, 215.75 13.98 M177.05 58.5 C190.78 42.71, 204.5 26.92, 215.75 13.98 M182.03 58.86 C191.97 47.43, 201.91 35.99, 215.49 20.37 M182.03 58.86 C190.63 48.97, 199.23 39.08, 215.49 20.37 M187.68 58.47 C198.3 46.25, 208.93 34.02, 215.89 26.02 M187.68 58.47 C193.74 51.49, 199.8 44.52, 215.89 26.02 M192.66 58.83 C198.73 51.85, 204.79 44.88, 215.63 32.41 M192.66 58.83 C198.61 51.99, 204.55 45.15, 215.63 32.41 M198.31 58.43 C203.94 51.95, 209.58 45.47, 215.36 38.81 M198.31 58.43 C202.63 53.46, 206.96 48.48, 215.36 38.81 M203.29 58.79 C205.79 55.92, 208.3 53.04, 215.76 44.45 M203.29 58.79 C208.22 53.13, 213.15 47.46, 215.76 44.45 M208.94 58.4 C210.96 56.08, 212.98 53.75, 215.5 50.85 M208.94 58.4 C210.31 56.82, 211.68 55.25, 215.5 50.85 M-0.13 56.55 C-0.13 56.55, -0.13 56.55, -0.13 56.55 M-0.13 56.55 C-0.13 56.55, -0.13 56.55, -0.13 56.55 M6.26 56.81 C4.93 55.66, 3.61 54.5, 0.23 51.56 M6.26 56.81 C4.61 55.37, 2.95 53.93, 0.23 51.56 M11.91 56.42 C8.2 53.2, 4.5 49.98, -0.17 45.92 M11.91 56.42 C7.21 52.33, 2.51 48.25, -0.17 45.92 M18.31 56.68 C11.08 50.4, 3.85 44.11, 0.19 40.93 M18.31 56.68 C11.11 50.43, 3.92 44.18, 0.19 40.93 M24.7 56.94 C15.63 49.06, 6.56 41.17, -0.2 35.29 M24.7 56.94 C16.8 50.07, 8.89 43.19, -0.2 35.29 M30.35 56.55 C21.41 48.78, 12.48 41.01, 0.16 30.3 M30.35 56.55 C18.87 46.57, 7.39 36.59, 0.16 30.3 M36.74 56.81 C23.17 45.01, 9.59 33.2, -0.24 24.66 M36.74 56.81 C24.85 46.47, 12.96 36.14, -0.24 24.66 M42.39 56.41 C26.19 42.34, 10 28.26, 0.12 19.67 M42.39 56.41 C26.29 42.42, 10.19 28.42, 0.12 19.67 M48.78 56.67 C37.25 46.64, 25.71 36.62, -0.27 14.03 M48.78 56.67 C29.24 39.69, 9.7 22.7, -0.27 14.03 M55.18 56.94 C41.24 44.82, 27.3 32.7, 0.09 9.04 M55.18 56.94 C43.56 46.84, 31.95 36.74, 0.09 9.04 M60.83 56.54 C45.02 42.8, 29.22 29.07, -0.31 3.4 M60.83 56.54 C39.45 37.96, 18.07 19.38, -0.31 3.4 M67.22 56.8 C46.08 38.42, 24.94 20.05, 0.81 -0.93 M67.22 56.8 C51.5 43.13, 35.77 29.46, 0.81 -0.93 M72.87 56.41 C46.77 33.72, 20.67 11.04, 7.21 -0.67 M72.87 56.41 C54.35 40.31, 35.84 24.22, 7.21 -0.67 M79.26 56.67 C58.54 38.65, 37.81 20.64, 12.85 -1.06 M79.26 56.67 C60.68 40.51, 42.1 24.36, 12.85 -1.06 M85.66 56.93 C60.24 34.84, 34.83 12.74, 19.25 -0.8 M85.66 56.93 C65.32 39.24, 44.97 21.56, 19.25 -0.8 M91.31 56.54 C65.57 34.16, 39.83 11.79, 24.89 -1.2 M91.31 56.54 C70.32 38.29, 49.33 20.05, 24.89 -1.2 M97.7 56.8 C83.41 44.37, 69.11 31.94, 31.29 -0.94 M97.7 56.8 C81.86 43.02, 66.01 29.25, 31.29 -0.94 M103.35 56.4 C89 43.93, 74.66 31.47, 37.69 -0.67 M103.35 56.4 C78.66 34.94, 53.98 13.49, 37.69 -0.67 M109.74 56.66 C92.05 41.28, 74.35 25.9, 43.33 -1.07 M109.74 56.66 C89.88 39.39, 70.01 22.12, 43.33 -1.07 M116.14 56.93 C96.3 39.68, 76.46 22.43, 49.73 -0.81 M116.14 56.93 C99.87 42.78, 83.6 28.64, 49.73 -0.81 M121.78 56.53 C96.69 34.71, 71.59 12.9, 55.37 -1.2 M121.78 56.53 C107.62 44.22, 93.46 31.91, 55.37 -1.2 M128.18 56.79 C112.06 42.78, 95.94 28.76, 61.77 -0.94 M128.18 56.79 C104.06 35.83, 79.95 14.86, 61.77 -0.94 M133.83 56.4 C110.09 35.76, 86.35 15.13, 68.17 -0.68 M133.83 56.4 C113.43 38.67, 93.03 20.93, 68.17 -0.68 M140.22 56.66 C121.3 40.21, 102.37 23.75, 73.81 -1.07 M140.22 56.66 C118.63 37.89, 97.04 19.12, 73.81 -1.07 M146.62 56.92 C126.72 39.63, 106.83 22.33, 80.21 -0.81 M146.62 56.92 C131.61 43.87, 116.6 30.82, 80.21 -0.81 M152.26 56.53 C127 34.56, 101.73 12.6, 85.85 -1.21 M152.26 56.53 C127.01 34.57, 101.76 12.62, 85.85 -1.21 M158.66 56.79 C142.41 42.66, 126.16 28.54, 92.25 -0.95 M158.66 56.79 C132.19 33.78, 105.72 10.77, 92.25 -0.95 M164.31 56.39 C144.33 39.03, 124.35 21.66, 98.65 -0.68 M164.31 56.39 C142.46 37.41, 120.62 18.42, 98.65 -0.68 M170.7 56.65 C149.48 38.2, 128.25 19.75, 104.29 -1.08 M170.7 56.65 C145.99 35.17, 121.27 13.68, 104.29 -1.08 M177.1 56.92 C153.72 36.59, 130.34 16.26, 110.69 -0.82 M177.1 56.92 C161.08 42.99, 145.07 29.07, 110.69 -0.82 M182.74 56.52 C168.29 43.96, 153.84 31.39, 116.33 -1.21 M182.74 56.52 C163.12 39.47, 143.5 22.41, 116.33 -1.21 M189.14 56.78 C173.23 42.95, 157.31 29.11, 122.73 -0.95 M189.14 56.78 C167.95 38.36, 146.75 19.94, 122.73 -0.95 M194.78 56.39 C174.94 39.14, 155.1 21.89, 129.12 -0.69 M194.78 56.39 C180.23 43.74, 165.68 31.08, 129.12 -0.69 M201.18 56.65 C187.69 44.92, 174.2 33.2, 134.77 -1.08 M201.18 56.65 C185.59 43.1, 170.01 29.55, 134.77 -1.08 M207.58 56.91 C187.18 39.18, 166.78 21.45, 141.17 -0.82 M207.58 56.91 C193.71 44.85, 179.83 32.79, 141.17 -0.82 M213.22 56.52 C193.36 39.25, 173.5 21.99, 146.81 -1.22 M213.22 56.52 C199.23 44.35, 185.23 32.18, 146.81 -1.22 M215.85 53.5 C201.03 40.61, 186.2 27.73, 153.21 -0.95 M215.85 53.5 C202.08 41.53, 188.32 29.57, 153.21 -0.95 M216.21 48.51 C198.99 33.55, 181.78 18.58, 159.6 -0.69 M216.21 48.51 C197.82 32.53, 179.44 16.55, 159.6 -0.69 M215.81 42.87 C202.41 31.22, 189.01 19.57, 165.25 -1.09 M215.81 42.87 C204.61 33.13, 193.41 23.39, 165.25 -1.09 M216.17 37.88 C206.58 29.54, 196.98 21.2, 171.65 -0.83 M216.17 37.88 C206.87 29.79, 197.56 21.7, 171.65 -0.83 M215.78 32.24 C206.65 24.3, 197.52 16.37, 177.29 -1.22 M215.78 32.24 C204.75 22.65, 193.73 13.07, 177.29 -1.22 M216.14 27.25 C204.76 17.36, 193.39 7.47, 183.69 -0.96 M216.14 27.25 C204.77 17.37, 193.4 7.49, 183.69 -0.96 M215.74 21.61 C206.3 13.4, 196.86 5.19, 190.08 -0.7 M215.74 21.61 C208.28 15.12, 200.81 8.62, 190.08 -0.7 M216.1 16.62 C211.07 12.25, 206.04 7.87, 195.73 -1.09 M216.1 16.62 C208.15 9.71, 200.2 2.8, 195.73 -1.09 M215.71 10.98 C211.05 6.93, 206.39 2.88, 202.12 -0.83 M215.71 10.98 C212.76 8.42, 209.82 5.86, 202.12 -0.83 M216.07 5.99 C213.06 3.37, 210.04 0.75, 207.77 -1.23 M216.07 5.99 C214.2 4.37, 212.33 2.74, 207.77 -1.23" stroke="#4c6ef5" stroke-width="0.5" fill="none"></path><path d="M0 0 C58.02 0, 116.04 0, 213.44 0 M213.44 0 C213.44 17.96, 213.44 35.92, 213.44 56.67 M213.44 56.67 C168.57 56.67, 123.71 56.67, 0 56.67 M0 56.67 C0 39.11, 0 21.55, 0 0" stroke="#5f3dc4" stroke-width="1.5" fill="none" stroke-dasharray="1.5 7"></path></g><g stroke-opacity="0.7" fill-opacity="0.7" transform="translate(837.4751157407406 750.2987200018695) rotate(0 97.27777777777789 17.944444444444457)"><text x="97.27777777777784" y="28.888888888888893" font-family="Cascadia, Segoe UI Emoji" font-size="30.222222222222236px" fill="#000000" text-anchor="middle" style="white-space: pre;" direction="ltr">ramdisk/hdd</text></g><g stroke-opacity="0.7" fill-opacity="0.7" stroke-linecap="round" transform="translate(803.6616695433038 757.3239900468784) rotate(270 1.7993384915720867 6.985667084926888)"><path d="M0 0 L3.6 0 L3.6 13.97 L0 13.97" stroke="none" stroke-width="0" fill="#fab005"></path><path d="M0 0 C1.1 0, 2.2 0, 3.6 0 M0 0 C1.18 0, 2.37 0, 3.6 0 M3.6 0 C3.6 3.73, 3.6 7.45, 3.6 13.97 M3.6 0 C3.6 3.58, 3.6 7.16, 3.6 13.97 M3.6 13.97 C2.53 13.97, 1.46 13.97, 0 13.97 M3.6 13.97 C2.4 13.97, 1.19 13.97, 0 13.97 M0 13.97 C0 8.78, 0 3.59, 0 0 M0 13.97 C0 10.96, 0 7.95, 0 0" stroke="#000000" stroke-width="1" fill="none"></path></g><g stroke-opacity="0.7" fill-opacity="0.7" stroke-linecap="round" transform="translate(803.6616695433047 760.9039887757835) rotate(270 1.7993384915720867 6.985667084926888)"><path d="M0 0 L3.6 0 L3.6 13.97 L0 13.97" stroke="none" stroke-width="0" fill="#fab005"></path><path d="M0 0 C1.28 0, 2.56 0, 3.6 0 M0 0 C1.15 0, 2.3 0, 3.6 0 M3.6 0 C3.6 5.51, 3.6 11.03, 3.6 13.97 M3.6 0 C3.6 3.09, 3.6 6.19, 3.6 13.97 M3.6 13.97 C2.32 13.97, 1.03 13.97, 0 13.97 M3.6 13.97 C2.5 13.97, 1.4 13.97, 0 13.97 M0 13.97 C0 10.71, 0 7.46, 0 0 M0 13.97 C0 10.8, 0 7.62, 0 0" stroke="#000000" stroke-width="1" fill="none"></path></g><g stroke-opacity="0.7" fill-opacity="0.7" stroke-linecap="round" transform="translate(803.6616695433042 750.1235230382163) rotate(270 1.7993384915720867 6.985667084926888)"><path d="M0 0 L3.6 0 L3.6 13.97 L0 13.97" stroke="none" stroke-width="0" fill="#fab005"></path><path d="M0 0 C1.27 0, 2.54 0, 3.6 0 M0 0 C0.93 0, 1.85 0, 3.6 0 M3.6 0 C3.6 4.26, 3.6 8.51, 3.6 13.97 M3.6 0 C3.6 4.55, 3.6 9.1, 3.6 13.97 M3.6 13.97 C2.57 13.97, 1.55 13.97, 0 13.97 M3.6 13.97 C2.69 13.97, 1.77 13.97, 0 13.97 M0 13.97 C0 9.55, 0 5.13, 0 0 M0 13.97 C0 8.94, 0 3.91, 0 0" stroke="#000000" stroke-width="1" fill="none"></path></g><g stroke-opacity="0.7" fill-opacity="0.7" stroke-linecap="round" transform="translate(803.6616695433038 753.703521767121) rotate(270 1.7993384915720867 6.985667084926888)"><path d="M0 0 L3.6 0 L3.6 13.97 L0 13.97" stroke="none" stroke-width="0" fill="#fab005"></path><path d="M0 0 C1.14 0, 2.28 0, 3.6 0 M0 0 C1.11 0, 2.23 0, 3.6 0 M3.6 0 C3.6 3.64, 3.6 7.27, 3.6 13.97 M3.6 0 C3.6 4.7, 3.6 9.4, 3.6 13.97 M3.6 13.97 C2.36 13.97, 1.12 13.97, 0 13.97 M3.6 13.97 C2.24 13.97, 0.88 13.97, 0 13.97 M0 13.97 C0 9.25, 0 4.52, 0 0 M0 13.97 C0 10.14, 0 6.32, 0 0" stroke="#000000" stroke-width="1" fill="none"></path></g><g stroke-opacity="0.7" fill-opacity="0.7" stroke-linecap="round" transform="translate(803.6616695433038 742.879473436333) rotate(270 1.7993384915720867 6.985667084926888)"><path d="M0 0 L3.6 0 L3.6 13.97 L0 13.97" stroke="none" stroke-width="0" fill="#fab005"></path><path d="M0 0 C1.07 0, 2.14 0, 3.6 0 M0 0 C1.14 0, 2.28 0, 3.6 0 M3.6 0 C3.6 5.35, 3.6 10.69, 3.6 13.97 M3.6 0 C3.6 5.12, 3.6 10.24, 3.6 13.97 M3.6 13.97 C2.36 13.97, 1.12 13.97, 0 13.97 M3.6 13.97 C2.71 13.97, 1.82 13.97, 0 13.97 M0 13.97 C0 10.78, 0 7.6, 0 0 M0 13.97 C0 10.9, 0 7.83, 0 0" stroke="#000000" stroke-width="1" fill="none"></path></g><g stroke-opacity="0.7" fill-opacity="0.7" stroke-linecap="round" transform="translate(803.6616695433038 746.4594721652395) rotate(270 1.7993384915720867 6.985667084926888)"><path d="M0 0 L3.6 0 L3.6 13.97 L0 13.97" stroke="none" stroke-width="0" fill="#fab005"></path><path d="M0 0 C1.06 0, 2.13 0, 3.6 0 M0 0 C1.05 0, 2.1 0, 3.6 0 M3.6 0 C3.6 5.22, 3.6 10.43, 3.6 13.97 M3.6 0 C3.6 4, 3.6 8, 3.6 13.97 M3.6 13.97 C2.16 13.97, 0.73 13.97, 0 13.97 M3.6 13.97 C2.83 13.97, 2.06 13.97, 0 13.97 M0 13.97 C0 9.86, 0 5.74, 0 0 M0 13.97 C0 10.27, 0 6.57, 0 0" stroke="#000000" stroke-width="1" fill="none"></path></g><g stroke-opacity="0.7" fill-opacity="0.7" stroke-linecap="round" transform="translate(803.6616695433042 735.6790064276704) rotate(270 1.7993384915720867 6.985667084926888)"><path d="M0 0 L3.6 0 L3.6 13.97 L0 13.97" stroke="none" stroke-width="0" fill="#fab005"></path><path d="M0 0 C0.79 0, 1.59 0, 3.6 0 M0 0 C1.15 0, 2.29 0, 3.6 0 M3.6 0 C3.6 3.7, 3.6 7.4, 3.6 13.97 M3.6 0 C3.6 5.04, 3.6 10.09, 3.6 13.97 M3.6 13.97 C2.74 13.97, 1.88 13.97, 0 13.97 M3.6 13.97 C2.52 13.97, 1.43 13.97, 0 13.97 M0 13.97 C0 10.01, 0 6.06, 0 0 M0 13.97 C0 9.46, 0 4.94, 0 0" stroke="#000000" stroke-width="1" fill="none"></path></g><g stroke-opacity="0.7" fill-opacity="0.7" stroke-linecap="round" transform="translate(803.6616695433047 739.2590051565778) rotate(270 1.7993384915720867 6.985667084926888)"><path d="M0 0 L3.6 0 L3.6 13.97 L0 13.97" stroke="none" stroke-width="0" fill="#fab005"></path><path d="M0 0 C0.92 0, 1.84 0, 3.6 0 M0 0 C0.99 0, 1.98 0, 3.6 0 M3.6 0 C3.6 3.52, 3.6 7.04, 3.6 13.97 M3.6 0 C3.6 4.81, 3.6 9.62, 3.6 13.97 M3.6 13.97 C2.42 13.97, 1.24 13.97, 0 13.97 M3.6 13.97 C2.65 13.97, 1.71 13.97, 0 13.97 M0 13.97 C0 10.68, 0 7.39, 0 0 M0 13.97 C0 10.51, 0 7.05, 0 0" stroke="#000000" stroke-width="1" fill="none"></path></g><g stroke-opacity="0.7" fill-opacity="0.7" stroke-linecap="round" transform="translate(803.6616695433047 728.534574181726) rotate(270 1.7993384915720867 6.985667084926888)"><path d="M0 0 L3.6 0 L3.6 13.97 L0 13.97" stroke="none" stroke-width="0" fill="#fab005"></path><path d="M0 0 C1.05 0, 2.1 0, 3.6 0 M0 0 C1.25 0, 2.51 0, 3.6 0 M3.6 0 C3.6 4.87, 3.6 9.75, 3.6 13.97 M3.6 0 C3.6 3.8, 3.6 7.6, 3.6 13.97 M3.6 13.97 C2.84 13.97, 2.08 13.97, 0 13.97 M3.6 13.97 C2.2 13.97, 0.8 13.97, 0 13.97 M0 13.97 C0 9.98, 0 5.98, 0 0 M0 13.97 C0 9.98, 0 5.98, 0 0" stroke="#000000" stroke-width="1" fill="none"></path></g><g stroke-opacity="0.7" fill-opacity="0.7" stroke-linecap="round" transform="translate(803.6616695433047 732.1145729106285) rotate(270 1.7993384915720867 6.985667084926888)"><path d="M0 0 L3.6 0 L3.6 13.97 L0 13.97" stroke="none" stroke-width="0" fill="#fab005"></path><path d="M0 0 C1.4 0, 2.8 0, 3.6 0 M0 0 C1.07 0, 2.14 0, 3.6 0 M3.6 0 C3.6 3.46, 3.6 6.92, 3.6 13.97 M3.6 0 C3.6 5.02, 3.6 10.03, 3.6 13.97 M3.6 13.97 C2.61 13.97, 1.62 13.97, 0 13.97 M3.6 13.97 C2.87 13.97, 2.15 13.97, 0 13.97 M0 13.97 C0 10.69, 0 7.42, 0 0 M0 13.97 C0 10.61, 0 7.24, 0 0" stroke="#000000" stroke-width="1" fill="none"></path></g><g stroke-opacity="0.7" fill-opacity="0.7" stroke-linecap="round" transform="translate(803.6616695433038 721.3341071730648) rotate(270 1.7993384915720867 6.985667084926888)"><path d="M0 0 L3.6 0 L3.6 13.97 L0 13.97" stroke="none" stroke-width="0" fill="#fab005"></path><path d="M0 0 C0.73 0, 1.47 0, 3.6 0 M0 0 C1.02 0, 2.04 0, 3.6 0 M3.6 0 C3.6 2.88, 3.6 5.75, 3.6 13.97 M3.6 0 C3.6 3.53, 3.6 7.06, 3.6 13.97 M3.6 13.97 C2.79 13.97, 1.98 13.97, 0 13.97 M3.6 13.97 C2.24 13.97, 0.88 13.97, 0 13.97 M0 13.97 C0 11.07, 0 8.18, 0 0 M0 13.97 C0 10.88, 0 7.8, 0 0" stroke="#000000" stroke-width="1" fill="none"></path></g><g stroke-opacity="0.7" fill-opacity="0.7" stroke-linecap="round" transform="translate(803.6616695433038 724.9141059019695) rotate(270 1.7993384915720867 6.985667084926888)"><path d="M0 0 L3.6 0 L3.6 13.97 L0 13.97" stroke="none" stroke-width="0" fill="#fab005"></path><path d="M0 0 C1.18 0, 2.37 0, 3.6 0 M0 0 C0.96 0, 1.92 0, 3.6 0 M3.6 0 C3.6 3.58, 3.6 7.16, 3.6 13.97 M3.6 0 C3.6 4.16, 3.6 8.32, 3.6 13.97 M3.6 13.97 C2.4 13.97, 1.19 13.97, 0 13.97 M3.6 13.97 C2.26 13.97, 0.93 13.97, 0 13.97 M0 13.97 C0 10.96, 0 7.95, 0 0 M0 13.97 C0 8.75, 0 3.54, 0 0" stroke="#000000" stroke-width="1" fill="none"></path></g><g stroke-opacity="0.7" fill-opacity="0.7" stroke-linecap="round" transform="translate(803.6616695433038 717.6700563000878) rotate(270 1.7993384915720867 6.985667084926888)"><path d="M0 0 L3.6 0 L3.6 13.97 L0 13.97" stroke="none" stroke-width="0" fill="#fab005"></path><path d="M0 0 C1.15 0, 2.3 0, 3.6 0 M0 0 C1.42 0, 2.84 0, 3.6 0 M3.6 0 C3.6 3.09, 3.6 6.19, 3.6 13.97 M3.6 0 C3.6 4.98, 3.6 9.96, 3.6 13.97 M3.6 13.97 C2.5 13.97, 1.4 13.97, 0 13.97 M3.6 13.97 C2.76 13.97, 1.92 13.97, 0 13.97 M0 13.97 C0 10.8, 0 7.62, 0 0 M0 13.97 C0 10.53, 0 7.08, 0 0" stroke="#000000" stroke-width="1" fill="none"></path></g><g stroke-opacity="0.8" fill-opacity="0.8" transform="translate(727.3957506613758 394.42857142857105) rotate(0 16.5 17)"><text x="16.5" y="27" font-family="Cascadia, Segoe UI Emoji" font-size="28px" fill="#364fc7" text-anchor="middle" style="white-space: pre;" direction="ltr">A1</text></g><g stroke-opacity="0.8" fill-opacity="0.8" transform="translate(834.1100363756611 394.42857142857105) rotate(0 16.5 17)"><text x="16.5" y="27" font-family="Cascadia, Segoe UI Emoji" font-size="28px" fill="#364fc7" text-anchor="middle" style="white-space: pre;" direction="ltr">A2</text></g><g stroke-opacity="0.8" fill-opacity="0.8" transform="translate(828.8243220899474 832.2023664202013) rotate(0 16.5 17)"><text x="16.5" y="27" font-family="Cascadia, Segoe UI Emoji" font-size="28px" fill="#364fc7" text-anchor="middle" style="white-space: pre;" direction="ltr">B1</text></g><g stroke-opacity="0.8" fill-opacity="0.8" transform="translate(738.68146494709 1258.3928135463161) rotate(0 16.5 17)"><text x="16.5" y="27" font-family="Cascadia, Segoe UI Emoji" font-size="28px" fill="#364fc7" text-anchor="middle" style="white-space: pre;" direction="ltr">C1</text></g><g stroke-opacity="0.8" fill-opacity="0.8" transform="translate(851.68146494709 1258.3928135463161) rotate(0 16.5 17)"><text x="16.5" y="27" font-family="Cascadia, Segoe UI Emoji" font-size="28px" fill="#364fc7" text-anchor="middle" style="white-space: pre;" direction="ltr">C2</text></g><g stroke-linecap="round"><g stroke-opacity="0.8" fill-opacity="0.8" transform="translate(774.8212790043024 776.4856169798779) rotate(0 78.04847527058246 44.74107142857139)"><path d="M0 0 C2.28 13.33, -10.05 66.43, 13.65 80 C37.36 93.57, 118.45 91.24, 142.22 81.43 C166 71.62, 153.97 31.19, 156.32 21.14 M0 0 C2.28 13.33, -10.05 66.43, 13.65 80 C37.36 93.57, 118.45 91.24, 142.22 81.43 C166 71.62, 153.97 31.19, 156.32 21.14" stroke="#000000" stroke-width="2" fill="none"></path></g><g stroke-opacity="0.8" fill-opacity="0.8" transform="translate(774.8212790043024 776.4856169798779) rotate(0 78.04847527058246 44.74107142857139)"><path d="M10.58 28.07 C7.23 19.16, 3.87 10.26, 0 0 M10.58 28.07 C6.53 17.33, 2.48 6.59, 0 0" stroke="#000000" stroke-width="2" fill="none"></path></g><g stroke-opacity="0.8" fill-opacity="0.8" transform="translate(774.8212790043024 776.4856169798779) rotate(0 78.04847527058246 44.74107142857139)"><path d="M-9.94 28.31 C-6.78 19.33, -3.63 10.34, 0 0 M-9.94 28.31 C-6.13 17.48, -2.33 6.64, 0 0" stroke="#000000" stroke-width="2" fill="none"></path></g><g stroke-opacity="0.8" fill-opacity="0.8" transform="translate(774.8212790043024 776.4856169798779) rotate(0 78.04847527058246 44.74107142857139)"><path d="M167.32 49.05 C163.83 40.2, 160.34 31.34, 156.32 21.14 M167.32 49.05 C163.11 38.37, 158.9 27.69, 156.32 21.14" stroke="#000000" stroke-width="2" fill="none"></path></g><g stroke-opacity="0.8" fill-opacity="0.8" transform="translate(774.8212790043024 776.4856169798779) rotate(0 78.04847527058246 44.74107142857139)"><path d="M146.81 49.6 C149.83 40.57, 152.84 31.54, 156.32 21.14 M146.81 49.6 C150.45 38.71, 154.09 27.82, 156.32 21.14" stroke="#000000" stroke-width="2" fill="none"></path></g></g><g stroke-linecap="round"><g stroke-opacity="0.8" fill-opacity="0.8" transform="translate(776.1874999999998 1205.0000000000007) rotate(0 260.70486111111114 66.47449215855403)"><path d="M0 0 C8.94 19.38, -24.16 95.84, 53.61 116.28 C131.39 136.73, 388.7 138.04, 466.67 122.67 C544.63 107.29, 512.29 40.47, 521.41 24.03 M0 0 C8.94 19.38, -24.16 95.84, 53.61 116.28 C131.39 136.73, 388.7 138.04, 466.67 122.67 C544.63 107.29, 512.29 40.47, 521.41 24.03" stroke="#000000" stroke-width="2" fill="none"></path></g><g stroke-opacity="0.8" fill-opacity="0.8" transform="translate(776.1874999999998 1205.0000000000007) rotate(0 260.70486111111114 66.47449215855403)"><path d="M13.28 26.9 C9.49 19.24, 5.71 11.57, 0 0 M13.28 26.9 C9.63 19.51, 5.98 12.11, 0 0" stroke="#000000" stroke-width="2" fill="none"></path></g><g stroke-opacity="0.8" fill-opacity="0.8" transform="translate(776.1874999999998 1205.0000000000007) rotate(0 260.70486111111114 66.47449215855403)"><path d="M-7.12 29.14 C-5.09 20.84, -3.06 12.53, 0 0 M-7.12 29.14 C-5.16 21.13, -3.21 13.12, 0 0" stroke="#000000" stroke-width="2" fill="none"></path></g><g stroke-opacity="0.8" fill-opacity="0.8" transform="translate(776.1874999999998 1205.0000000000007) rotate(0 260.70486111111114 66.47449215855403)"><path d="M530.44 52.64 C527.87 44.48, 525.29 36.33, 521.41 24.03 M530.44 52.64 C527.96 44.77, 525.47 36.9, 521.41 24.03" stroke="#000000" stroke-width="2" fill="none"></path></g><g stroke-opacity="0.8" fill-opacity="0.8" transform="translate(776.1874999999998 1205.0000000000007) rotate(0 260.70486111111114 66.47449215855403)"><path d="M509.94 51.75 C513.21 43.85, 516.48 35.95, 521.41 24.03 M509.94 51.75 C513.09 44.13, 516.25 36.5, 521.41 24.03" stroke="#000000" stroke-width="2" fill="none"></path></g></g><g stroke-linecap="round"><g stroke-opacity="0.8" fill-opacity="0.8" transform="translate(894.1874999999998 1225.0000000000005) rotate(0 201.1733333333333 56.125)"><path d="M0 0 C6.67 16.67, -20 83.33, 40 100 C100 116.67, 299.56 116, 360 100 C420.44 84, 395.56 20, 402.67 4 M0 0 C6.67 16.67, -20 83.33, 40 100 C100 116.67, 299.56 116, 360 100 C420.44 84, 395.56 20, 402.67 4" stroke="#000000" stroke-width="2" fill="none"></path></g><g stroke-opacity="0.8" fill-opacity="0.8" transform="translate(894.1874999999998 1225.0000000000005) rotate(0 201.1733333333333 56.125)"><path d="M12.56 27.25 C8.16 17.7, 3.76 8.15, 0 0 M12.56 27.25 C8.83 19.16, 5.11 11.08, 0 0" stroke="#000000" stroke-width="2" fill="none"></path></g><g stroke-opacity="0.8" fill-opacity="0.8" transform="translate(894.1874999999998 1225.0000000000005) rotate(0 201.1733333333333 56.125)"><path d="M-7.89 28.94 C-5.13 18.8, -2.36 8.66, 0 0 M-7.89 28.94 C-5.55 20.36, -3.21 11.77, 0 0" stroke="#000000" stroke-width="2" fill="none"></path></g><g stroke-opacity="0.8" fill-opacity="0.8" transform="translate(894.1874999999998 1225.0000000000005) rotate(0 201.1733333333333 56.125)"><path d="M411.86 32.56 C408.64 22.55, 405.42 12.54, 402.67 4 M411.86 32.56 C409.14 24.08, 406.41 15.61, 402.67 4" stroke="#000000" stroke-width="2" fill="none"></path></g><g stroke-opacity="0.8" fill-opacity="0.8" transform="translate(894.1874999999998 1225.0000000000005) rotate(0 201.1733333333333 56.125)"><path d="M391.36 31.79 C395.32 22.05, 399.28 12.31, 402.67 4 M391.36 31.79 C394.71 23.54, 398.07 15.3, 402.67 4" stroke="#000000" stroke-width="2" fill="none"></path></g></g></svg>